<svg width="100%" height="100%" viewBox="-0.968807 2.51267 151.885 97.9823" version="1.1" xmlns="http://www.w3.org/2000/svg" xmlns:xlink="http://www.w3.org/1999/xlink" xmlns:t="http://www.tagul.com/schema">
  <t:styleOptions>
    <t:backgroundColor>FFFFFF</t:backgroundColor>
    <t:backgroundColorAlpha>1</t:backgroundColorAlpha>
    <t:animationSpeed>0.00999999977648258</t:animationSpeed>
    <t:textColor>FFFFFF</t:textColor>
    <t:textAlpha>1</t:textAlpha>
    <t:boxColor>000000</t:boxColor>
    <t:boxAlpha>0.699999988079071</t:boxAlpha>
    <t:zoom>1</t:zoom>
    <t:rotate>1</t:rotate>
    <t:openLinksInNewWindow>1</t:openLinksInNewWindow>
  </t:styleOptions>
  <style type="text/css">svg { background-color: #FFFFFF; } rect { opacity: 0; }</style>
  <defs>
    <symbol overflow="visible" id="f29g88">
      <path d="M 755 0 L 427 0 L 427 -31 Q 469 -37 488 -45 Q 507 -54 508 -73 Q 509 -92 484 -125 L 344 -312 L 191 -122 Q 166 -89 184 -61 Q 202 -33 252 -31 L 252 0 L -30 0 L -30 -31 Q 33 -51 69 -77 Q 105 -103 156 -166 L 314 -353 L 142 -572 Q 111 -613 85 -629 Q 59 -645 16 -650 L 16 -681 L 326 -681 L 326 -650 Q 268 -648 253 -626 Q 238 -604 267 -572 L 391 -410 L 508 -560 Q 536 -594 525 -621 Q 514 -649 458 -650 L 458 -681 L 727 -681 L 727 -650 Q 668 -640 637 -619 Q 606 -599 550 -532 L 419 -371 L 611 -121 Q 647 -73 675 -55 Q 704 -37 755 -31 L 755 0 "/>
    </symbol>
    <symbol overflow="visible" id="f29g77">
      <path d="M 894 0 L 614 0 L 614 -31 L 639 -34 Q 678 -39 691 -61 Q 704 -83 704 -144 L 704 -610 L 453 0 L 408 0 L 179 -622 L 179 -144 Q 179 -83 192 -60 Q 206 -38 244 -34 L 279 -31 L 279 0 L 26 0 L 26 -31 L 57 -34 Q 95 -38 108 -60 Q 122 -83 122 -144 L 122 -537 Q 122 -598 109 -620 Q 96 -642 57 -647 L 32 -650 L 32 -681 L 265 -681 L 457 -166 L 666 -681 L 894 -681 L 894 -650 L 869 -647 Q 830 -642 817 -620 Q 804 -598 804 -537 L 804 -144 Q 804 -83 817 -61 Q 830 -39 869 -34 L 894 -31 L 894 0 "/>
    </symbol>
    <symbol overflow="visible" id="f29g80">
      <path d="M 613 -490 Q 613 -457 602 -426 Q 591 -395 565 -362 Q 540 -330 487 -310 Q 435 -291 362 -291 L 221 -291 L 221 -144 Q 221 -83 234 -60 Q 248 -37 286 -34 L 323 -31 L 323 0 L 31 0 L 31 -31 L 56 -34 Q 95 -39 108 -61 Q 121 -83 121 -144 L 121 -537 Q 121 -598 108 -620 Q 95 -642 56 -647 L 31 -650 L 31 -681 L 363 -681 Q 479 -681 546 -629 Q 613 -578 613 -490 M 511 -487 Q 511 -639 335 -639 Q 263 -639 242 -627 Q 221 -615 221 -575 L 221 -334 L 346 -334 Q 393 -334 427 -348 Q 462 -363 479 -387 Q 496 -411 503 -435 Q 511 -460 511 -487 "/>
    </symbol>
    <symbol overflow="visible" id="f1g70">
      <path d="M 453 -565 L 365 -565 Q 359 -599 333 -647 L 242 -647 Q 242 -644 238 -620 Q 235 -596 231 -567 Q 228 -538 224 -509 Q 221 -481 221 -469 Q 221 -454 221 -446 Q 222 -438 228 -433 Q 234 -429 247 -428 Q 260 -427 284 -427 Q 319 -427 321 -465 L 407 -465 Q 393 -405 382 -354 Q 371 -304 363 -259 L 304 -259 Q 305 -263 305 -274 Q 305 -277 305 -282 Q 305 -287 304 -294 L 304 -314 Q 273 -324 228 -324 Q 219 -324 210 -314 Q 210 -282 209 -259 Q 208 -236 207 -216 Q 207 -197 206 -179 Q 205 -161 205 -140 Q 205 -105 227 -84 Q 249 -64 282 -64 Q 284 -64 286 -64 Q 289 -65 292 -65 L 292 18 L 8 18 Q 8 3 8 -19 Q 8 -42 9 -71 L 12 -71 Q 57 -71 81 -133 Q 106 -195 106 -311 L 106 -495 Q 106 -501 107 -513 Q 109 -525 111 -538 Q 114 -552 115 -563 Q 117 -575 117 -581 Q 117 -607 99 -622 Q 81 -637 55 -637 L 47 -637 Q 47 -639 47 -647 Q 48 -655 48 -665 Q 48 -675 48 -685 Q 49 -695 49 -701 Q 49 -708 48 -713 Q 48 -718 47 -723 L 453 -723 L 453 -565 "/>
    </symbol>
    <symbol overflow="visible" id="f1g108">
      <path d="M 239 -4 L 9 -4 L 9 -55 Q 73 -58 73 -102 Q 73 -107 72 -116 Q 71 -126 71 -131 L 71 -568 Q 71 -573 72 -583 Q 74 -594 76 -605 Q 78 -617 79 -627 Q 81 -638 81 -643 Q 81 -666 66 -679 Q 51 -692 30 -692 L 24 -692 L 24 -698 Q 24 -717 18 -729 Q 47 -737 90 -748 Q 133 -759 191 -773 Q 191 -762 188 -716 Q 186 -670 181 -588 Q 179 -565 178 -551 Q 177 -538 177 -533 L 177 -531 L 177 -82 Q 177 -50 221 -50 Q 225 -50 229 -50 Q 234 -50 239 -51 L 239 -4 "/>
    </symbol>
    <symbol overflow="visible" id="f1g97">
      <path d="M 381 -19 Q 381 4 370 8 Q 359 12 340 12 Q 315 12 292 -5 Q 269 -22 260 -46 Q 209 7 142 7 Q 81 7 44 -27 Q 7 -61 7 -121 Q 7 -158 19 -188 Q 31 -219 53 -241 Q 76 -263 107 -274 Q 138 -286 177 -286 Q 185 -286 194 -285 Q 203 -285 213 -284 Q 217 -303 217 -329 Q 217 -451 133 -451 Q 98 -451 80 -411 Q 97 -418 112 -418 Q 152 -418 152 -355 Q 152 -346 145 -336 Q 139 -327 129 -319 Q 119 -312 108 -307 Q 98 -302 89 -302 Q 27 -302 27 -386 Q 27 -439 73 -467 Q 120 -495 203 -495 Q 264 -495 291 -442 Q 319 -390 319 -266 Q 319 -258 318 -241 Q 318 -224 318 -205 Q 318 -186 317 -169 Q 317 -152 317 -143 Q 317 -37 351 -37 Q 362 -37 377 -46 Q 381 -34 381 -19 M 215 -106 Q 214 -117 213 -125 Q 213 -134 213 -140 Q 212 -147 212 -152 L 212 -151 Q 212 -166 212 -185 Q 213 -205 214 -229 Q 196 -234 174 -234 Q 144 -234 125 -207 Q 107 -181 107 -142 Q 107 -100 128 -71 Q 150 -42 186 -42 Q 206 -42 209 -66 Q 211 -85 212 -94 Q 214 -104 215 -106 "/>
    </symbol>
    <symbol overflow="visible" id="f1g115">
      <path d="M 169 -497 Q 247 -497 287 -463 Q 328 -430 328 -379 Q 328 -349 310 -327 Q 292 -305 263 -305 Q 238 -305 220 -323 Q 203 -342 203 -367 Q 203 -386 218 -400 Q 234 -415 253 -415 Q 260 -415 266 -410 Q 273 -406 275 -406 Q 276 -409 276 -413 Q 276 -421 268 -427 Q 260 -434 247 -439 Q 234 -444 217 -446 Q 201 -449 184 -449 Q 173 -449 161 -444 Q 150 -439 139 -430 Q 129 -422 122 -411 Q 116 -401 116 -391 Q 116 -372 121 -356 Q 126 -340 138 -325 Q 151 -310 172 -294 Q 194 -278 227 -259 Q 251 -246 270 -233 Q 290 -221 304 -206 Q 318 -191 325 -172 Q 333 -154 333 -128 Q 333 -105 325 -79 Q 317 -54 301 -32 Q 285 -11 261 3 Q 237 18 205 18 Q 117 18 66 -12 Q 15 -42 15 -99 Q 15 -129 33 -151 Q 51 -174 80 -174 Q 105 -174 122 -155 Q 140 -137 140 -111 Q 140 -93 124 -78 Q 109 -64 90 -64 Q 83 -64 77 -68 Q 72 -72 70 -73 Q 78 -29 164 -29 Q 179 -29 194 -34 Q 209 -40 221 -49 Q 233 -58 240 -71 Q 247 -84 247 -99 Q 247 -135 194 -171 Q 104 -234 97 -241 Q 44 -291 44 -357 Q 44 -385 55 -410 Q 67 -436 85 -455 Q 103 -475 125 -486 Q 147 -497 169 -497 "/>
    </symbol>
    <symbol overflow="visible" id="f1g104">
      <path d="M 480 -82 Q 480 -48 456 -25 Q 433 -3 398 -3 Q 302 -3 302 -93 L 302 -284 Q 302 -305 294 -327 Q 286 -349 273 -367 Q 260 -385 243 -396 Q 227 -408 210 -408 Q 191 -408 181 -386 L 181 -82 Q 181 -50 225 -50 Q 229 -50 233 -50 Q 238 -50 243 -51 L 243 -4 L 13 -4 L 13 -55 L 17 -55 Q 79 -55 79 -128 L 79 -247 Q 79 -292 82 -387 Q 85 -483 85 -637 Q 85 -657 69 -669 Q 53 -682 33 -682 L 28 -682 L 28 -694 Q 28 -701 23 -719 Q 52 -727 94 -738 Q 137 -749 195 -763 Q 192 -698 192 -675 Q 192 -649 192 -593 Q 193 -537 194 -446 Q 207 -461 215 -469 Q 223 -478 229 -482 Q 236 -487 243 -488 Q 250 -490 261 -490 Q 284 -490 309 -472 Q 334 -455 355 -429 Q 376 -404 389 -375 Q 403 -346 403 -324 L 403 -120 Q 403 -71 420 -56 Q 439 -66 439 -88 Q 439 -92 438 -101 Q 437 -110 437 -115 Q 437 -122 438 -123 L 480 -123 L 480 -82 "/>
    </symbol>
    <symbol overflow="visible" id="f1g32">
      <path d=""/>
    </symbol>
    <symbol overflow="visible" id="f1g77">
      <path d="M 744 -30 Q 744 -25 743 -12 Q 742 1 740 21 L 492 21 L 492 -43 Q 558 -67 558 -141 L 558 -411 L 435 -50 L 355 -50 L 192 -422 Q 195 -348 195 -137 Q 195 -123 200 -110 Q 206 -97 214 -86 Q 222 -75 232 -68 Q 243 -62 254 -62 Q 262 -62 271 -65 L 271 -56 L 271 -44 Q 271 -14 277 10 Q 190 10 124 7 Q 58 4 10 -1 Q 7 -17 7 -28 Q 6 -49 19 -57 Q 32 -66 48 -72 Q 65 -79 80 -88 Q 95 -97 100 -119 Q 98 -113 101 -151 Q 105 -189 110 -255 Q 115 -322 119 -407 Q 124 -493 124 -581 Q 124 -607 106 -622 Q 88 -637 62 -637 L 54 -637 Q 56 -657 57 -674 Q 59 -691 59 -708 L 59 -722 Q 90 -729 143 -729 Q 206 -729 236 -721 Q 238 -716 250 -679 Q 263 -642 281 -589 Q 299 -537 320 -476 Q 341 -416 359 -363 Q 377 -310 390 -273 Q 403 -236 406 -230 L 558 -734 Q 584 -732 606 -731 Q 629 -730 649 -730 Q 669 -730 689 -731 Q 709 -732 731 -734 L 731 -659 L 729 -659 Q 723 -659 713 -661 Q 704 -663 699 -663 Q 638 -663 638 -515 L 638 -492 Q 639 -484 639 -478 Q 639 -472 639 -469 L 645 -102 Q 645 -91 650 -82 Q 656 -73 664 -67 Q 673 -61 683 -58 Q 693 -55 702 -55 Q 708 -55 720 -57 Q 733 -60 739 -60 Q 744 -47 744 -30 "/>
    </symbol>
    <symbol overflow="visible" id="f1g101">
      <path d="M 341 -325 Q 341 -279 332 -263 L 123 -263 Q 120 -216 120 -199 Q 120 -42 191 -42 Q 245 -42 286 -132 L 323 -132 Q 293 7 174 7 Q 15 7 15 -268 Q 15 -316 27 -356 Q 39 -397 61 -427 Q 84 -457 116 -473 Q 148 -490 188 -490 Q 261 -490 301 -445 Q 341 -400 341 -325 M 251 -345 Q 251 -452 191 -452 Q 179 -452 167 -441 Q 156 -431 146 -415 Q 137 -399 131 -381 Q 126 -363 126 -347 L 126 -322 L 250 -322 Q 251 -328 251 -334 Q 251 -340 251 -345 "/>
    </symbol>
    <symbol overflow="visible" id="f1g100">
      <path d="M 348 -107 Q 348 -96 353 -85 Q 359 -74 368 -65 Q 377 -57 388 -51 Q 399 -46 410 -46 Q 414 -38 414 -20 Q 414 3 402 7 Q 391 12 372 12 Q 347 12 324 -5 Q 302 -22 292 -46 Q 241 7 175 7 Q 21 7 21 -268 Q 21 -308 32 -348 Q 44 -388 64 -419 Q 84 -451 110 -470 Q 137 -490 168 -490 Q 185 -490 192 -486 Q 199 -483 214 -466 L 239 -437 Q 243 -449 243 -625 Q 243 -692 192 -692 L 185 -692 L 185 -703 Q 185 -716 180 -729 Q 234 -743 276 -754 Q 318 -765 347 -773 L 348 -107 M 249 -283 Q 249 -413 189 -413 Q 122 -413 122 -227 Q 122 -42 189 -42 Q 249 -42 249 -162 Q 249 -173 248 -194 Q 247 -216 247 -227 Q 247 -237 248 -255 Q 249 -274 249 -283 "/>
    </symbol>
    <symbol overflow="visible" id="f1g105">
      <path d="M 199 -601 Q 199 -587 192 -574 Q 186 -561 175 -551 Q 165 -541 151 -535 Q 138 -529 125 -529 Q 97 -529 76 -553 Q 55 -578 55 -611 Q 55 -638 77 -655 Q 100 -673 127 -673 Q 158 -673 178 -652 Q 199 -632 199 -601 M 247 -4 L 17 -4 L 17 -55 Q 18 -54 32 -54 Q 87 -54 87 -134 Q 87 -173 85 -204 Q 84 -236 84 -271 Q 84 -294 85 -318 Q 86 -343 89 -374 Q 89 -399 71 -411 Q 54 -423 31 -423 L 32 -428 Q 32 -448 26 -459 Q 81 -474 194 -504 Q 189 -412 186 -319 Q 183 -226 183 -129 Q 183 -90 195 -70 Q 207 -50 236 -50 Q 246 -50 247 -51 L 247 -4 "/>
    </symbol>
    <symbol overflow="visible" id="f1g83">
      <path d="M 447 -189 Q 447 -132 428 -87 Q 410 -43 375 -12 Q 341 18 293 33 Q 245 49 187 49 Q 160 49 129 35 Q 99 21 73 -1 Q 48 -23 31 -51 Q 14 -79 14 -107 Q 14 -179 39 -210 Q 65 -241 124 -241 Q 201 -241 201 -165 Q 201 -129 179 -105 Q 158 -82 123 -82 Q 118 -82 107 -85 Q 96 -88 90 -88 Q 83 -88 80 -87 Q 99 -16 188 -16 L 209 -17 Q 327 -18 327 -137 Q 327 -171 305 -202 Q 284 -234 250 -265 Q 217 -296 175 -325 Q 134 -355 95 -384 Q 14 -460 14 -562 Q 14 -641 70 -687 Q 127 -734 225 -734 Q 271 -734 309 -724 Q 348 -715 376 -697 Q 404 -679 420 -653 Q 436 -628 436 -597 Q 436 -583 428 -569 Q 421 -556 409 -545 Q 397 -534 382 -527 Q 368 -521 354 -521 Q 337 -521 319 -526 Q 301 -532 287 -541 Q 273 -551 264 -564 Q 255 -577 255 -592 Q 255 -615 268 -632 Q 282 -649 304 -649 L 311 -649 Q 309 -659 300 -668 Q 291 -678 278 -685 Q 265 -693 250 -697 Q 236 -702 223 -702 Q 206 -702 191 -694 Q 176 -686 165 -673 Q 154 -660 147 -643 Q 140 -627 140 -611 Q 140 -607 144 -594 Q 149 -581 155 -567 Q 161 -553 167 -540 Q 173 -527 176 -523 Q 188 -505 209 -483 Q 230 -461 254 -438 Q 279 -416 303 -394 Q 328 -373 347 -356 Q 367 -340 379 -330 Q 392 -320 392 -321 Q 447 -262 447 -189 "/>
    </symbol>
    <symbol overflow="visible" id="f1g114">
      <path d="M 267 -495 Q 313 -495 337 -465 Q 362 -435 362 -389 Q 362 -375 356 -358 Q 351 -342 342 -328 Q 334 -315 323 -306 Q 312 -297 301 -297 Q 285 -297 270 -303 Q 255 -309 244 -319 Q 233 -329 226 -343 Q 219 -357 219 -373 Q 219 -418 270 -418 Q 275 -418 282 -415 Q 289 -412 292 -412 L 292 -414 Q 292 -442 258 -442 Q 175 -442 175 -254 L 175 -219 Q 175 -168 176 -135 Q 177 -103 182 -84 Q 187 -65 198 -57 Q 210 -50 230 -50 Q 240 -50 241 -51 L 241 -4 L 11 -4 L 11 -55 L 44 -62 Q 61 -66 69 -75 Q 78 -85 78 -97 L 78 -374 Q 78 -399 61 -411 Q 45 -423 25 -423 L 26 -428 Q 26 -448 20 -460 Q 46 -468 85 -479 Q 124 -490 178 -504 Q 175 -481 174 -457 Q 173 -434 173 -408 Q 188 -448 216 -471 Q 245 -495 267 -495 "/>
    </symbol>
    <symbol overflow="visible" id="f1g118">
      <path d="M 416 -438 L 250 13 Q 235 10 211 10 Q 201 10 190 10 Q 179 11 165 12 Q 160 -8 150 -41 Q 141 -75 129 -114 Q 118 -154 105 -196 Q 93 -238 82 -275 Q 71 -312 62 -340 Q 53 -369 49 -382 Q 47 -387 40 -392 Q 33 -398 23 -402 Q 14 -406 4 -408 Q -5 -411 -12 -411 L -16 -411 Q -14 -419 -13 -430 Q -12 -441 -11 -455 Q 13 -462 48 -471 Q 84 -480 132 -491 L 229 -93 Q 310 -370 310 -374 Q 310 -382 304 -390 Q 299 -399 291 -406 Q 283 -414 274 -418 Q 265 -423 257 -423 Q 253 -423 247 -421 L 247 -460 Q 276 -468 317 -479 Q 359 -491 416 -506 L 416 -438 "/>
    </symbol>
    <symbol overflow="visible" id="f29g85">
      <path d="M 754 -650 L 729 -647 Q 690 -642 677 -620 Q 664 -598 664 -537 L 664 -204 Q 664 -98 603 -42 Q 543 13 392 13 Q 337 13 291 3 Q 245 -7 203 -29 Q 162 -52 138 -96 Q 115 -140 115 -202 L 115 -537 Q 115 -598 102 -620 Q 89 -642 50 -647 L 25 -650 L 25 -681 L 317 -681 L 317 -650 L 280 -647 Q 242 -644 228 -621 Q 215 -598 215 -537 L 215 -270 Q 215 -222 217 -192 Q 220 -163 231 -129 Q 242 -96 262 -77 Q 282 -59 318 -47 Q 354 -35 407 -35 Q 449 -35 481 -42 Q 513 -50 534 -60 Q 555 -71 569 -92 Q 584 -113 591 -128 Q 599 -144 602 -174 Q 606 -204 606 -221 Q 607 -238 607 -272 L 607 -537 Q 607 -598 593 -620 Q 580 -643 542 -647 L 509 -650 L 509 -681 L 754 -681 L 754 -650 "/>
    </symbol>
    <symbol overflow="visible" id="f29g110">
      <path d="M 649 0 L 380 0 L 380 -30 L 405 -32 Q 438 -36 452 -55 Q 467 -74 467 -115 L 467 -346 Q 467 -446 382 -446 Q 298 -446 205 -362 L 205 -115 Q 205 -74 219 -55 Q 234 -36 267 -32 L 292 -30 L 292 0 L 23 0 L 23 -30 L 48 -32 Q 81 -36 95 -55 Q 110 -74 110 -115 L 110 -350 Q 110 -395 96 -412 Q 82 -430 44 -433 L 20 -435 L 20 -465 Q 96 -470 171 -485 L 205 -485 L 205 -406 Q 258 -453 306 -473 Q 354 -494 411 -494 Q 482 -494 522 -459 Q 562 -424 562 -362 L 562 -115 Q 562 -74 576 -55 Q 591 -36 624 -32 L 649 -30 L 649 0 "/>
    </symbol>
    <symbol overflow="visible" id="f29g105">
      <path d="M 288 0 L 20 0 L 20 -30 L 45 -32 Q 78 -36 92 -55 Q 107 -74 107 -115 L 107 -350 Q 107 -395 93 -412 Q 80 -429 41 -433 L 21 -435 L 21 -465 Q 83 -470 168 -485 L 202 -485 L 202 -115 Q 202 -74 216 -55 Q 230 -36 264 -32 L 288 -30 L 288 0 M 193 -671 Q 211 -654 211 -630 Q 211 -606 193 -588 Q 176 -571 152 -571 Q 128 -571 110 -588 Q 93 -606 93 -630 Q 93 -655 110 -672 Q 128 -689 153 -689 Q 176 -689 193 -671 "/>
    </symbol>
    <symbol overflow="visible" id="f29g116">
      <path d="M 388 -61 Q 334 9 247 9 Q 211 9 181 0 Q 151 -10 127 -40 Q 104 -70 104 -117 L 104 -452 L 20 -452 L 20 -485 Q 94 -488 128 -531 Q 162 -575 161 -667 L 199 -667 L 199 -485 L 342 -485 L 342 -452 L 199 -452 L 199 -163 Q 199 -31 274 -31 Q 316 -31 361 -83 L 388 -61 "/>
    </symbol>
    <symbol overflow="visible" id="f29g121">
      <path d="M 549 -454 Q 509 -444 487 -424 Q 465 -405 447 -363 L 274 43 Q 263 70 256 85 Q 250 101 230 135 Q 210 169 191 188 Q 173 208 143 224 Q 113 241 80 241 Q 40 241 13 221 Q -14 202 -14 173 Q -14 153 1 138 Q 17 124 39 124 Q 54 124 64 130 Q 75 137 94 157 Q 113 176 127 176 Q 147 176 171 150 Q 195 125 211 85 L 236 27 L 57 -391 Q 43 -426 28 -437 Q 14 -449 -23 -454 L -23 -485 L 210 -485 L 210 -455 Q 140 -447 160 -398 L 285 -94 L 378 -330 Q 393 -368 397 -391 Q 401 -414 392 -426 Q 383 -439 370 -444 Q 357 -450 329 -455 L 329 -485 L 549 -485 L 549 -454 "/>
    </symbol>
    <symbol overflow="visible" id="f29g32">
      <path d=""/>
    </symbol>
    <symbol overflow="visible" id="f29g51">
      <path d="M 576 -196 Q 576 -105 495 -46 Q 414 13 288 13 Q 172 13 106 -35 Q 40 -84 40 -141 Q 40 -170 58 -190 Q 76 -210 101 -210 Q 126 -210 141 -194 Q 157 -178 157 -154 Q 157 -141 152 -127 Q 148 -114 148 -109 Q 148 -103 151 -95 Q 154 -87 164 -75 Q 174 -64 189 -54 Q 204 -45 231 -38 Q 258 -32 292 -32 Q 372 -32 417 -75 Q 463 -118 463 -194 Q 463 -281 411 -318 Q 360 -355 291 -355 Q 272 -355 221 -350 L 221 -395 L 271 -393 Q 298 -393 324 -399 Q 350 -405 375 -418 Q 401 -432 417 -459 Q 433 -487 433 -524 Q 433 -581 395 -615 Q 358 -649 296 -649 Q 245 -649 209 -627 Q 173 -606 173 -575 Q 173 -567 181 -548 Q 190 -529 190 -516 Q 190 -496 173 -482 Q 157 -468 135 -468 Q 110 -468 93 -486 Q 77 -504 77 -532 Q 77 -589 135 -641 Q 194 -694 302 -694 Q 405 -694 473 -648 Q 541 -602 541 -531 Q 541 -514 536 -497 Q 531 -480 516 -456 Q 502 -432 465 -411 Q 429 -390 375 -378 Q 478 -357 524 -315 Q 576 -269 576 -196 "/>
    </symbol>
    <symbol overflow="visible" id="f29g68">
      <path d="M 752 -335 Q 752 0 336 0 L 31 0 L 31 -31 L 56 -34 Q 95 -39 108 -61 Q 121 -83 121 -144 L 121 -537 Q 121 -598 108 -620 Q 95 -642 56 -647 L 31 -650 L 31 -681 L 336 -681 Q 441 -681 519 -656 Q 598 -632 641 -596 Q 684 -561 710 -511 Q 737 -462 744 -421 Q 752 -380 752 -335 M 634 -342 Q 634 -384 626 -423 Q 619 -462 598 -502 Q 577 -543 545 -572 Q 513 -602 460 -621 Q 408 -640 340 -640 Q 297 -640 271 -634 Q 246 -629 235 -614 Q 225 -600 223 -589 Q 221 -578 221 -554 Q 221 -550 221 -548 L 221 -129 Q 221 -103 224 -89 Q 227 -76 238 -63 Q 249 -51 273 -46 Q 298 -41 339 -41 Q 423 -41 484 -69 Q 545 -97 576 -143 Q 607 -190 620 -239 Q 634 -288 634 -342 "/>
    </symbol>
    <symbol overflow="visible" id="f29g101">
      <path d="M 491 -116 Q 418 9 284 9 Q 221 9 171 -15 Q 122 -39 94 -77 Q 66 -116 51 -159 Q 37 -203 37 -247 Q 37 -355 103 -424 Q 170 -494 273 -494 Q 305 -494 339 -484 Q 373 -475 409 -453 Q 445 -432 468 -389 Q 491 -346 491 -289 L 144 -289 Q 144 -168 181 -102 Q 219 -36 314 -36 Q 406 -36 458 -132 L 491 -116 M 387 -329 L 387 -332 Q 388 -350 381 -375 Q 374 -401 345 -427 Q 316 -454 269 -454 Q 211 -454 184 -420 Q 157 -387 147 -329 L 387 -329 "/>
    </symbol>
    <symbol overflow="visible" id="f29g99">
      <path d="M 498 -108 Q 423 9 283 9 Q 173 9 105 -60 Q 37 -130 37 -242 Q 37 -272 43 -303 Q 50 -334 67 -369 Q 84 -404 110 -431 Q 137 -458 181 -476 Q 225 -494 281 -494 Q 376 -494 430 -449 Q 485 -405 485 -357 Q 485 -334 470 -318 Q 456 -302 434 -302 Q 412 -302 397 -316 Q 383 -331 383 -353 L 384 -388 Q 384 -414 354 -434 Q 324 -454 285 -454 Q 230 -454 195 -418 Q 161 -383 150 -338 Q 139 -293 139 -238 Q 139 -145 186 -88 Q 234 -31 311 -31 Q 357 -31 392 -52 Q 427 -73 469 -126 L 498 -108 "/>
    </symbol>
    <symbol overflow="visible" id="f29g111">
      <path d="M 526 -239 Q 526 -128 459 -59 Q 392 9 283 9 Q 171 9 104 -59 Q 37 -128 37 -241 Q 37 -271 43 -302 Q 49 -333 66 -368 Q 84 -404 110 -431 Q 136 -458 180 -476 Q 224 -494 279 -494 Q 336 -494 380 -476 Q 425 -458 451 -431 Q 478 -404 495 -368 Q 513 -333 519 -301 Q 526 -269 526 -239 M 424 -234 Q 424 -337 385 -395 Q 347 -454 280 -454 Q 216 -454 177 -396 Q 139 -339 139 -243 Q 139 -142 177 -86 Q 215 -31 284 -31 Q 350 -31 387 -85 Q 424 -139 424 -234 "/>
    </symbol>
    <symbol overflow="visible" id="f29g100">
      <path d="M 591 0 L 423 0 L 423 -67 Q 352 9 250 9 Q 150 9 93 -66 Q 37 -142 37 -241 Q 37 -349 100 -421 Q 163 -494 257 -494 Q 346 -494 423 -441 L 423 -538 Q 423 -605 411 -625 Q 399 -646 358 -650 L 337 -652 L 337 -683 Q 416 -692 478 -717 L 518 -717 L 518 -115 Q 518 -75 531 -57 Q 544 -40 579 -32 L 591 -30 L 591 0 M 423 -118 L 423 -389 Q 383 -423 353 -436 Q 323 -449 287 -449 Q 243 -449 212 -427 Q 181 -406 166 -372 Q 151 -338 145 -306 Q 139 -275 139 -243 Q 139 -210 145 -177 Q 152 -145 166 -112 Q 181 -79 210 -59 Q 239 -39 279 -39 Q 358 -39 423 -118 "/>
    </symbol>
    <symbol overflow="visible" id="f29g114">
      <path d="M 447 -438 Q 447 -414 431 -398 Q 415 -383 390 -383 Q 363 -383 339 -401 Q 316 -416 297 -416 Q 255 -416 205 -360 L 205 -115 Q 205 -74 219 -55 Q 234 -36 267 -32 L 292 -30 L 292 0 L 23 0 L 23 -30 L 48 -32 Q 81 -36 95 -55 Q 110 -74 110 -115 L 110 -350 Q 110 -395 96 -412 Q 82 -430 44 -433 L 20 -435 L 20 -465 Q 96 -470 171 -485 L 205 -485 L 205 -405 Q 209 -408 234 -430 Q 260 -452 274 -462 Q 288 -472 316 -483 Q 345 -494 374 -494 Q 406 -494 426 -478 Q 447 -463 447 -438 "/>
    </symbol>
    <symbol overflow="visible" id="f1g80">
      <path d="M 511 -554 Q 511 -506 492 -464 Q 473 -422 439 -389 Q 406 -357 359 -335 Q 312 -314 256 -307 Q 253 -313 231 -313 Q 228 -281 225 -248 Q 222 -216 220 -189 Q 218 -162 216 -144 Q 215 -126 215 -124 Q 215 -104 236 -92 Q 257 -80 289 -80 Q 294 -80 298 -80 Q 302 -81 307 -82 Q 307 -68 307 -45 Q 307 -22 308 10 L 7 10 Q 8 1 8 -19 Q 8 -39 8 -71 Q 105 -71 105 -179 Q 105 -187 103 -203 Q 102 -220 100 -239 Q 99 -258 98 -275 Q 97 -292 97 -300 Q 97 -305 97 -310 Q 97 -316 98 -321 Q 108 -391 112 -456 Q 117 -521 117 -581 Q 117 -607 98 -622 Q 80 -637 54 -637 L 46 -637 Q 48 -657 49 -674 Q 51 -691 51 -708 L 51 -722 Q 88 -734 111 -734 L 172 -734 Q 269 -734 334 -724 Q 399 -715 438 -693 Q 478 -672 494 -637 Q 511 -603 511 -554 M 363 -540 Q 363 -663 261 -663 L 231 -663 L 231 -384 Q 303 -397 333 -432 Q 363 -468 363 -540 "/>
    </symbol>
    <symbol overflow="visible" id="f1g69">
      <path d="M 466 -12 L 4 -1 Q 1 -16 1 -67 Q 47 -71 68 -79 Q 89 -88 94 -119 Q 92 -113 95 -150 Q 99 -188 104 -254 Q 109 -320 113 -405 Q 118 -491 118 -581 Q 118 -607 100 -622 Q 82 -637 56 -637 L 48 -637 Q 50 -657 51 -674 Q 53 -691 53 -708 L 53 -722 Q 123 -739 188 -739 L 457 -739 L 457 -587 Q 447 -585 436 -585 Q 426 -585 415 -585 Q 402 -585 392 -583 Q 383 -582 374 -587 Q 365 -593 355 -610 Q 346 -627 334 -664 L 227 -664 Q 232 -573 235 -505 Q 238 -438 238 -390 L 301 -390 Q 306 -411 310 -430 Q 315 -450 318 -469 L 383 -469 Q 375 -415 370 -362 Q 365 -310 364 -258 L 306 -258 Q 304 -265 301 -281 Q 299 -298 295 -324 L 232 -324 Q 230 -286 226 -231 Q 222 -176 216 -103 Q 241 -98 264 -95 Q 287 -93 307 -93 Q 342 -93 355 -119 Q 369 -145 371 -180 L 465 -180 Q 466 -169 466 -158 Q 466 -148 466 -137 L 466 -12 "/>
    </symbol>
    <symbol overflow="visible" id="f1g71">
      <path d="M 529 15 Q 518 22 496 22 Q 481 22 464 16 Q 447 11 430 2 Q 414 -7 400 -19 Q 386 -31 378 -44 Q 367 -29 350 -15 Q 334 -1 315 9 Q 297 20 278 26 Q 259 33 244 33 Q 196 33 153 3 Q 111 -26 78 -72 Q 46 -119 27 -177 Q 9 -235 9 -291 Q 9 -391 26 -474 Q 43 -558 74 -618 Q 106 -678 152 -711 Q 198 -745 255 -745 Q 283 -745 312 -727 Q 341 -709 365 -682 Q 389 -655 404 -622 Q 420 -590 420 -562 Q 420 -444 313 -444 Q 301 -444 290 -451 Q 280 -459 272 -470 Q 264 -482 259 -496 Q 255 -511 255 -526 Q 255 -601 338 -601 Q 338 -630 321 -644 Q 304 -658 266 -658 Q 235 -658 211 -635 Q 187 -612 170 -571 Q 153 -531 144 -474 Q 135 -418 135 -351 Q 135 -299 144 -250 Q 154 -201 171 -162 Q 188 -124 211 -100 Q 235 -77 263 -77 Q 283 -77 299 -88 Q 316 -100 328 -119 Q 340 -138 347 -162 Q 354 -186 354 -211 Q 354 -243 347 -253 Q 340 -263 321 -263 Q 312 -263 295 -261 Q 278 -259 269 -259 Q 272 -266 272 -286 Q 272 -295 271 -313 Q 271 -331 270 -358 L 523 -358 L 523 -264 Q 519 -265 509 -265 Q 464 -265 436 -249 Q 436 -219 441 -187 Q 446 -155 454 -128 Q 463 -101 473 -83 Q 484 -66 496 -66 Q 502 -66 512 -68 Q 523 -71 529 -71 L 529 15 "/>
    </symbol>
    <symbol overflow="visible" id="f29g87">
      <path d="M 984 -650 Q 936 -647 915 -626 Q 894 -606 870 -540 L 676 0 L 617 0 L 470 -437 L 324 0 L 265 0 L 77 -540 Q 54 -604 38 -620 Q 22 -637 -30 -650 L -30 -681 L 242 -681 L 242 -650 Q 195 -647 178 -630 Q 162 -613 176 -574 L 322 -134 L 441 -515 Q 422 -584 398 -611 Q 374 -639 324 -650 L 324 -681 L 598 -681 L 598 -650 Q 551 -644 533 -628 Q 515 -613 529 -581 L 675 -136 L 809 -552 Q 815 -572 816 -587 Q 817 -603 812 -613 Q 808 -623 801 -629 Q 795 -636 782 -640 Q 770 -644 759 -646 Q 749 -648 732 -650 L 732 -681 L 984 -681 L 984 -650 "/>
    </symbol>
    <symbol overflow="visible" id="f29g119">
      <path d="M 804 -455 Q 763 -444 742 -424 Q 722 -404 701 -354 L 561 0 L 491 0 L 391 -287 L 273 0 L 208 0 L 59 -387 Q 46 -421 28 -436 Q 10 -452 -19 -455 L -19 -485 L 217 -485 L 217 -455 Q 179 -452 166 -436 Q 153 -421 166 -387 L 272 -89 L 369 -345 L 352 -387 Q 338 -422 323 -434 Q 309 -447 273 -455 L 273 -485 L 511 -485 L 511 -455 Q 470 -450 458 -434 Q 446 -419 456 -387 L 560 -90 L 650 -354 Q 681 -449 583 -455 L 583 -485 L 804 -485 L 804 -455 "/>
    </symbol>
    <symbol overflow="visible" id="f29g122">
      <path d="M 476 -158 L 422 0 L 23 0 L 7 -29 L 335 -447 Q 295 -455 268 -455 Q 180 -455 123 -416 Q 85 -390 54 -327 L 23 -338 L 79 -485 L 453 -485 L 464 -460 L 129 -44 Q 176 -30 224 -30 Q 300 -30 350 -61 Q 400 -92 448 -168 L 476 -158 "/>
    </symbol>
    <symbol overflow="visible" id="f29g97">
      <path d="M 587 -30 Q 547 9 484 9 Q 399 9 372 -68 Q 322 -26 280 -8 Q 239 9 189 9 Q 122 9 78 -26 Q 35 -61 35 -115 Q 35 -241 292 -275 Q 309 -277 372 -284 L 372 -364 Q 372 -405 340 -429 Q 309 -454 256 -454 Q 214 -454 184 -439 Q 155 -424 155 -402 L 156 -374 Q 156 -353 141 -338 Q 126 -323 105 -323 Q 85 -323 71 -336 Q 57 -349 57 -367 Q 57 -404 91 -434 Q 126 -464 175 -479 Q 225 -494 275 -494 Q 309 -494 340 -487 Q 371 -481 401 -465 Q 431 -450 449 -419 Q 467 -389 467 -346 L 467 -134 Q 467 -115 467 -104 Q 468 -94 471 -79 Q 474 -64 479 -56 Q 485 -48 496 -42 Q 507 -36 523 -36 Q 545 -36 568 -56 L 587 -30 M 372 -113 L 372 -249 Q 259 -239 198 -207 Q 137 -175 137 -125 Q 137 -89 162 -64 Q 188 -39 224 -39 Q 294 -39 372 -113 "/>
    </symbol>
    <symbol overflow="visible" id="f1g87">
      <path d="M 838 -675 Q 813 -670 798 -662 Q 783 -654 771 -630 Q 760 -606 749 -560 Q 738 -515 721 -436 Q 718 -422 710 -384 Q 702 -346 691 -297 Q 681 -248 669 -193 Q 657 -138 646 -90 Q 636 -42 628 -5 Q 620 31 617 43 L 611 43 Q 603 43 527 49 Q 521 27 513 -9 Q 505 -45 496 -88 Q 488 -131 479 -177 Q 471 -223 463 -264 Q 455 -306 448 -339 Q 441 -372 437 -390 Q 433 -373 425 -340 Q 418 -307 409 -265 Q 401 -224 391 -179 Q 382 -134 372 -91 Q 363 -49 355 -13 Q 347 22 342 43 L 336 43 Q 328 43 252 49 Q 217 -110 194 -205 Q 172 -300 163 -333 Q 80 -641 23 -641 Q 18 -641 9 -639 Q 1 -637 -3 -637 Q 0 -683 0 -702 Q 0 -721 -3 -732 L 239 -732 L 239 -647 Q 236 -648 232 -648 Q 196 -648 196 -608 Q 196 -609 274 -353 Q 293 -290 307 -242 Q 321 -194 330 -159 L 399 -523 L 399 -525 Q 399 -547 391 -568 Q 383 -589 371 -605 Q 359 -622 344 -631 Q 330 -641 318 -641 Q 313 -641 304 -639 Q 296 -637 292 -637 Q 295 -683 295 -702 Q 295 -721 292 -732 Q 311 -732 349 -732 Q 388 -733 430 -733 Q 473 -733 511 -733 Q 550 -734 568 -734 L 568 -675 Q 491 -652 491 -616 Q 491 -607 494 -597 Q 522 -490 605 -159 L 691 -622 L 691 -626 Q 691 -632 685 -639 Q 680 -646 672 -652 Q 665 -659 657 -664 Q 649 -669 643 -670 Q 643 -675 644 -691 Q 646 -708 648 -734 L 838 -734 L 838 -675 "/>
    </symbol>
    <symbol overflow="visible" id="f1g67">
      <path d="M 426 -174 Q 423 -129 408 -91 Q 394 -54 369 -26 Q 345 2 312 17 Q 279 33 240 33 Q 193 33 150 4 Q 107 -25 75 -71 Q 43 -118 24 -175 Q 5 -233 5 -291 Q 5 -391 22 -474 Q 39 -558 70 -618 Q 102 -678 148 -711 Q 194 -745 251 -745 Q 279 -745 308 -727 Q 337 -709 361 -682 Q 385 -655 400 -622 Q 416 -590 416 -562 Q 416 -444 309 -444 Q 297 -444 286 -451 Q 276 -459 268 -471 Q 260 -483 255 -497 Q 251 -512 251 -526 Q 251 -601 334 -601 Q 334 -630 317 -644 Q 300 -658 262 -658 Q 232 -658 207 -635 Q 183 -612 166 -571 Q 149 -530 140 -473 Q 131 -417 131 -351 Q 131 -299 140 -250 Q 150 -201 167 -162 Q 185 -124 208 -100 Q 232 -77 260 -77 Q 274 -77 286 -82 Q 298 -87 309 -100 Q 321 -113 334 -135 Q 347 -157 363 -192 Q 382 -184 426 -174 "/>
    </symbol>
    <symbol overflow="visible" id="f29g83">
      <path d="M 634 -202 Q 634 -112 553 -49 Q 473 13 356 13 Q 238 13 149 -50 L 130 0 L 93 0 L 28 -229 L 65 -241 Q 117 -141 191 -88 Q 265 -35 351 -35 Q 428 -35 480 -77 Q 532 -120 532 -184 Q 532 -229 502 -254 Q 473 -280 399 -298 L 265 -332 Q 161 -359 114 -398 Q 59 -445 59 -515 Q 59 -580 117 -637 Q 175 -694 288 -694 Q 396 -694 477 -645 L 489 -681 L 525 -681 L 586 -500 L 554 -488 Q 451 -646 308 -646 Q 246 -646 203 -615 Q 161 -584 161 -539 Q 161 -499 192 -473 Q 224 -448 297 -430 L 422 -400 Q 535 -373 584 -330 Q 634 -287 634 -202 "/>
    </symbol>
    <symbol overflow="visible" id="f29g108">
      <path d="M 286 0 L 20 0 L 20 -30 L 44 -32 Q 78 -36 92 -55 Q 106 -74 106 -115 L 106 -538 Q 106 -605 94 -625 Q 82 -646 41 -650 L 20 -652 L 20 -683 Q 99 -692 161 -717 L 201 -717 L 201 -115 Q 201 -74 215 -55 Q 229 -36 263 -32 L 286 -30 L 286 0 "/>
    </symbol>
    <symbol overflow="visible" id="f29g118">
      <path d="M 534 -453 Q 468 -438 430 -354 L 277 0 L 218 0 L 59 -385 Q 42 -423 26 -436 Q 11 -449 -23 -454 L -23 -485 L 221 -485 L 221 -455 Q 195 -452 183 -449 Q 172 -447 164 -439 Q 156 -432 157 -419 Q 158 -407 165 -385 L 278 -88 L 382 -362 Q 400 -401 388 -424 Q 376 -448 328 -455 L 328 -485 L 534 -485 L 534 -453 "/>
    </symbol>
    <symbol overflow="visible" id="f29g76">
      <path d="M 629 -214 L 549 0 L 31 0 L 31 -31 L 56 -34 Q 95 -39 108 -61 Q 121 -83 121 -144 L 121 -537 Q 121 -598 108 -620 Q 95 -642 56 -647 L 31 -650 L 31 -681 L 318 -681 L 318 -650 L 286 -647 Q 248 -643 234 -620 Q 221 -598 221 -537 L 221 -123 Q 221 -80 237 -59 Q 254 -38 307 -38 Q 402 -38 491 -105 Q 541 -142 601 -227 L 629 -214 "/>
    </symbol>
    <symbol overflow="visible" id="f29g103">
      <path d="M 542 -520 Q 542 -504 531 -493 Q 520 -482 504 -482 Q 490 -482 475 -491 Q 460 -501 451 -501 Q 427 -501 398 -458 Q 481 -402 481 -316 Q 481 -289 471 -262 Q 461 -235 438 -208 Q 416 -181 372 -164 Q 329 -148 271 -148 Q 226 -148 177 -164 Q 131 -140 131 -111 Q 131 -79 196 -70 L 387 -44 Q 419 -40 439 -34 Q 459 -29 485 -16 Q 511 -4 524 20 Q 538 44 538 79 Q 538 153 465 197 Q 392 241 271 241 Q 159 241 88 207 Q 17 173 17 119 Q 17 82 41 56 Q 66 31 122 10 Q 49 -16 49 -74 Q 49 -142 147 -174 Q 66 -229 66 -316 Q 66 -390 126 -442 Q 186 -494 272 -494 Q 313 -494 366 -474 Q 413 -563 488 -563 Q 512 -563 527 -551 Q 542 -539 542 -520 M 274 -180 Q 379 -180 379 -321 Q 379 -462 277 -462 Q 225 -462 196 -425 Q 168 -388 168 -322 Q 168 -180 274 -180 M 468 111 Q 468 82 444 66 Q 420 51 365 44 L 160 19 Q 77 50 77 109 Q 77 151 131 177 Q 185 204 271 204 Q 376 204 422 175 Q 468 146 468 111 "/>
    </symbol>
    <symbol overflow="visible" id="f29g104">
      <path d="M 643 0 L 374 0 L 374 -30 L 399 -32 Q 432 -36 446 -55 Q 461 -74 461 -115 L 461 -345 Q 461 -446 375 -446 Q 288 -446 202 -364 L 202 -115 Q 202 -74 216 -55 Q 231 -36 264 -32 L 289 -30 L 289 0 L 20 0 L 20 -30 L 45 -32 Q 78 -36 92 -55 Q 107 -74 107 -115 L 107 -538 Q 107 -605 95 -625 Q 83 -646 42 -650 L 20 -652 L 20 -683 Q 99 -692 162 -717 L 202 -717 L 202 -411 Q 298 -494 399 -494 Q 444 -494 475 -482 Q 507 -471 522 -457 Q 538 -443 546 -420 Q 554 -397 555 -384 Q 556 -371 556 -351 L 556 -115 Q 556 -74 570 -55 Q 585 -36 618 -32 L 643 -30 L 643 0 "/>
    </symbol>
    <symbol overflow="visible" id="f29g79">
      <path d="M 758 -338 Q 758 -255 726 -187 Q 695 -119 643 -76 Q 592 -33 529 -10 Q 466 13 400 13 Q 248 13 146 -89 Q 44 -192 44 -343 Q 44 -490 148 -592 Q 253 -694 404 -694 Q 558 -694 658 -593 Q 758 -493 758 -338 M 640 -332 Q 640 -477 576 -561 Q 512 -646 402 -646 Q 293 -646 227 -563 Q 162 -480 162 -342 Q 162 -202 227 -118 Q 292 -35 401 -35 Q 510 -35 575 -116 Q 640 -197 640 -332 "/>
    </symbol>
    <symbol overflow="visible" id="f29g65">
      <path d="M 714 0 L 433 0 L 433 -31 Q 494 -40 506 -59 Q 519 -78 501 -124 L 451 -253 L 193 -253 L 161 -167 Q 149 -136 144 -115 Q 140 -95 145 -77 Q 150 -59 167 -47 Q 181 -38 231 -31 L 231 0 L -37 0 L -37 -31 L -26 -33 Q 24 -43 49 -77 Q 74 -111 124 -240 L 296 -681 L 389 -681 L 601 -145 Q 628 -76 646 -57 Q 665 -39 714 -31 L 714 0 M 433 -296 L 319 -596 L 208 -296 L 433 -296 "/>
    </symbol>
    <symbol overflow="visible" id="f29g84">
      <path d="M 656 -505 L 621 -493 Q 535 -643 401 -643 Q 376 -643 368 -634 Q 360 -625 360 -599 L 360 -144 Q 360 -83 373 -60 Q 387 -37 425 -34 L 464 -31 L 464 0 L 156 0 L 156 -31 L 195 -34 Q 233 -37 246 -60 Q 260 -83 260 -144 L 260 -603 Q 260 -626 250 -634 Q 241 -643 216 -643 Q 81 -643 -4 -493 L -37 -505 L 20 -681 L 600 -681 L 656 -505 "/>
    </symbol>
    <symbol overflow="visible" id="f29g112">
      <path d="M 583 -245 Q 583 -137 519 -64 Q 455 9 360 9 Q 269 9 202 -42 L 202 113 Q 202 154 216 173 Q 231 193 264 196 L 289 198 L 289 228 L 20 228 L 20 198 L 45 196 Q 78 193 92 173 Q 107 154 107 113 L 107 -350 Q 107 -395 93 -412 Q 80 -429 41 -433 L 20 -435 L 20 -465 Q 97 -472 168 -485 L 202 -485 L 202 -419 Q 268 -494 365 -494 Q 465 -494 524 -420 Q 583 -346 583 -245 M 481 -233 Q 481 -331 441 -390 Q 401 -449 334 -449 Q 262 -449 202 -369 L 202 -91 Q 260 -36 335 -36 Q 398 -36 439 -92 Q 481 -148 481 -233 "/>
    </symbol>
    <symbol overflow="visible" id="f29g49">
      <path d="M 501 0 L 160 0 L 160 -30 L 193 -32 Q 221 -34 239 -41 Q 257 -49 266 -56 Q 275 -63 279 -81 Q 283 -100 283 -108 Q 284 -116 284 -141 L 284 -524 Q 284 -583 270 -599 Q 256 -616 201 -618 L 161 -620 L 161 -650 Q 269 -663 347 -681 L 379 -681 L 379 -139 Q 379 -75 395 -55 Q 412 -36 469 -32 L 501 -30 L 501 0 "/>
    </symbol>
    <symbol overflow="visible" id="f29g48">
      <path d="M 586 -336 Q 586 -182 509 -84 Q 433 13 312 13 Q 191 13 115 -86 Q 40 -185 40 -343 Q 40 -430 69 -508 Q 99 -587 162 -640 Q 226 -694 312 -694 Q 434 -694 510 -595 Q 586 -496 586 -336 M 478 -343 Q 478 -389 474 -429 Q 470 -469 459 -510 Q 448 -551 430 -580 Q 413 -609 383 -627 Q 354 -646 316 -646 Q 266 -646 230 -613 Q 195 -581 178 -528 Q 162 -476 155 -428 Q 148 -380 148 -332 Q 148 -242 164 -179 Q 180 -117 207 -87 Q 234 -58 259 -46 Q 285 -35 314 -35 Q 361 -35 394 -61 Q 428 -88 445 -134 Q 463 -181 470 -232 Q 478 -283 478 -343 "/>
    </symbol>
    <symbol overflow="visible" id="f29g67">
      <path d="M 702 -159 Q 591 13 397 13 Q 246 13 145 -87 Q 44 -187 44 -337 Q 44 -421 76 -491 Q 109 -562 159 -604 Q 209 -647 265 -670 Q 321 -694 373 -694 Q 495 -694 579 -630 L 600 -672 L 633 -672 L 681 -431 L 649 -431 Q 631 -468 621 -485 Q 612 -503 593 -534 Q 575 -565 558 -580 Q 541 -596 516 -613 Q 491 -631 460 -638 Q 429 -646 392 -646 Q 293 -646 227 -558 Q 162 -471 162 -338 Q 162 -258 186 -196 Q 211 -135 250 -101 Q 289 -68 330 -51 Q 372 -35 412 -35 Q 434 -35 459 -40 Q 484 -46 519 -60 Q 554 -74 591 -105 Q 628 -137 659 -183 L 702 -159 "/>
    </symbol>
    <symbol overflow="visible" id="f29g115">
      <path d="M 487 -153 Q 487 -83 428 -37 Q 369 9 279 9 Q 230 9 194 -3 Q 158 -15 118 -46 L 107 -4 L 74 -4 L 40 -182 L 74 -182 Q 93 -129 116 -103 Q 144 -69 186 -50 Q 229 -31 276 -31 Q 331 -31 368 -57 Q 405 -84 405 -123 Q 405 -170 332 -189 L 204 -221 Q 125 -241 90 -271 Q 55 -301 55 -348 Q 55 -409 108 -451 Q 161 -494 238 -494 Q 319 -494 381 -445 L 391 -481 L 419 -481 L 451 -327 L 419 -327 Q 394 -386 347 -420 Q 301 -454 244 -454 Q 200 -454 171 -432 Q 143 -411 143 -379 Q 143 -363 149 -352 Q 156 -341 170 -334 Q 184 -327 194 -323 Q 204 -320 221 -316 L 360 -282 Q 425 -266 456 -235 Q 487 -204 487 -153 "/>
    </symbol>
    <symbol overflow="visible" id="f29g50">
      <path d="M 576 -187 L 528 0 L 42 0 L 42 -70 Q 136 -128 190 -170 Q 245 -213 295 -268 Q 415 -402 415 -513 Q 415 -572 377 -609 Q 340 -646 279 -646 Q 224 -646 181 -618 Q 138 -590 138 -554 Q 138 -534 159 -508 Q 171 -493 171 -476 Q 171 -455 153 -438 Q 136 -422 114 -422 Q 85 -422 65 -446 Q 46 -470 46 -506 Q 46 -583 117 -638 Q 189 -694 287 -694 Q 395 -694 464 -639 Q 533 -585 533 -499 Q 533 -371 358 -224 Q 296 -172 153 -82 L 380 -82 Q 448 -82 475 -99 Q 503 -116 528 -174 L 538 -197 L 576 -187 "/>
    </symbol>
    <symbol overflow="visible" id="f1g72">
      <path d="M 566 18 L 310 18 L 310 -70 Q 348 -90 348 -178 L 348 -297 L 232 -297 L 221 -186 Q 218 -160 217 -145 Q 216 -130 216 -126 Q 216 -106 225 -89 Q 234 -73 250 -73 Q 260 -73 264 -78 Q 265 -78 265 18 L 8 18 Q 8 3 8 -19 Q 8 -42 9 -71 Q 106 -72 106 -179 Q 106 -187 104 -203 Q 103 -220 101 -239 Q 100 -258 99 -275 Q 98 -292 98 -300 Q 98 -317 99 -341 Q 100 -365 104 -396 Q 110 -448 113 -479 Q 116 -510 116 -528 Q 117 -547 117 -558 Q 117 -569 117 -581 Q 117 -607 99 -622 Q 81 -637 55 -637 L 47 -637 Q 49 -657 50 -674 Q 52 -691 52 -708 L 52 -722 Q 92 -734 145 -734 Q 199 -734 265 -722 Q 259 -702 259 -667 L 259 -653 Q 250 -653 238 -646 Q 227 -640 227 -630 Q 227 -628 228 -600 Q 230 -573 232 -538 Q 234 -504 235 -471 Q 237 -439 237 -428 L 351 -428 Q 352 -458 352 -477 Q 353 -496 353 -504 Q 353 -628 316 -659 Q 316 -682 310 -729 L 560 -729 L 560 -664 Q 554 -664 544 -666 Q 534 -669 528 -669 Q 514 -669 468 -621 L 473 -104 Q 473 -95 479 -87 Q 486 -80 495 -74 Q 505 -68 515 -64 Q 526 -61 534 -61 Q 539 -61 550 -63 Q 561 -65 566 -65 L 566 18 "/>
    </symbol>
    <symbol overflow="visible" id="f1g111">
      <path d="M 177 -503 Q 358 -503 358 -246 Q 358 -186 345 -138 Q 333 -91 310 -57 Q 287 -23 253 -5 Q 220 13 177 13 Q 16 13 16 -276 Q 16 -319 28 -359 Q 41 -400 63 -432 Q 85 -464 114 -483 Q 144 -503 177 -503 M 199 -450 Q 117 -450 117 -251 Q 117 -31 180 -31 Q 267 -31 267 -225 Q 267 -273 261 -314 Q 256 -355 247 -385 Q 238 -415 225 -432 Q 213 -450 199 -450 "/>
    </symbol>
    <symbol overflow="visible" id="f1g112">
      <path d="M 394 -218 Q 394 -179 382 -139 Q 371 -99 351 -67 Q 331 -36 304 -16 Q 277 4 247 4 Q 220 4 203 -11 Q 186 -27 175 -49 Q 172 -47 172 -28 L 172 59 Q 172 88 181 105 Q 191 122 225 122 Q 231 122 239 120 Q 235 130 234 142 Q 234 154 234 167 Q 225 167 204 168 Q 183 170 158 172 Q 134 174 111 175 Q 88 177 76 177 Q 25 177 14 167 L 14 125 Q 41 123 56 103 Q 71 84 71 46 L 71 -339 Q 60 -411 35 -411 Q 26 -411 -2 -402 L -2 -444 Q 26 -456 55 -470 Q 85 -485 116 -502 L 138 -502 L 147 -444 Q 150 -445 156 -453 Q 162 -461 173 -470 Q 184 -479 200 -486 Q 217 -493 240 -493 Q 394 -493 394 -218 M 225 -445 Q 166 -445 166 -326 L 166 -205 Q 166 -74 225 -74 Q 293 -74 293 -259 Q 293 -445 225 -445 "/>
    </symbol>
    <symbol overflow="visible" id="f1g79">
      <path d="M 478 -370 Q 478 -277 462 -202 Q 446 -127 415 -75 Q 384 -23 339 5 Q 294 33 237 33 Q 184 33 141 5 Q 99 -22 69 -71 Q 39 -120 23 -188 Q 7 -257 7 -340 Q 7 -431 23 -504 Q 39 -577 70 -628 Q 101 -679 146 -706 Q 191 -734 250 -734 Q 305 -734 347 -709 Q 390 -685 419 -638 Q 448 -591 463 -523 Q 478 -456 478 -370 M 330 -337 Q 330 -392 323 -448 Q 317 -504 305 -549 Q 294 -595 278 -623 Q 263 -652 245 -652 Q 154 -652 154 -379 Q 154 -66 237 -66 Q 256 -66 273 -90 Q 290 -114 303 -153 Q 316 -192 323 -240 Q 330 -289 330 -337 "/>
    </symbol>
    <symbol overflow="visible" id="f1g110">
      <path d="M 480 -82 Q 480 -48 456 -25 Q 432 -3 398 -3 Q 301 -3 301 -93 L 301 -284 Q 301 -311 295 -335 Q 289 -360 279 -379 Q 269 -399 254 -410 Q 240 -422 224 -422 Q 210 -422 198 -409 Q 186 -397 186 -382 Q 180 -127 180 -121 Q 180 -50 232 -50 Q 239 -50 243 -51 L 243 -4 L 13 -4 L 13 -55 Q 22 -60 32 -60 Q 43 -60 53 -62 Q 63 -65 69 -73 Q 76 -82 76 -105 Q 76 -111 75 -121 Q 74 -132 73 -143 Q 73 -155 72 -165 Q 71 -176 71 -182 Q 71 -197 73 -229 Q 75 -262 78 -295 Q 81 -328 83 -354 Q 85 -381 85 -386 Q 85 -399 68 -411 Q 51 -423 27 -423 L 28 -428 Q 28 -448 22 -460 Q 51 -468 94 -479 Q 137 -490 195 -504 Q 192 -469 192 -465 Q 192 -456 194 -446 Q 229 -490 265 -490 Q 286 -490 310 -472 Q 334 -455 354 -429 Q 375 -404 389 -375 Q 403 -346 403 -324 L 403 -120 Q 403 -71 420 -56 Q 439 -66 439 -88 Q 439 -92 438 -101 Q 437 -110 437 -115 L 437 -123 L 480 -123 L 480 -82 "/>
    </symbol>
    <symbol overflow="visible" id="f1g102">
      <path d="M 330 -669 Q 330 -631 313 -607 Q 296 -584 268 -584 Q 250 -584 237 -600 Q 224 -617 224 -640 Q 224 -663 238 -680 Q 253 -697 276 -697 Q 284 -697 292 -694 Q 278 -711 269 -713 Q 261 -716 249 -716 Q 223 -716 209 -709 Q 196 -702 189 -682 Q 183 -662 182 -626 Q 181 -591 181 -534 L 181 -487 Q 185 -472 210 -472 Q 235 -472 253 -475 L 253 -413 L 176 -413 L 176 -222 Q 176 -163 177 -131 Q 179 -99 182 -83 Q 185 -67 189 -63 Q 194 -60 201 -58 L 207 -56 Q 217 -52 227 -48 Q 238 -44 238 -35 L 238 -4 L 18 -4 L 18 -45 Q 71 -59 71 -130 Q 71 -128 69 -193 Q 68 -259 66 -404 Q 48 -409 29 -409 L 13 -409 L 13 -475 L 71 -475 Q 79 -753 229 -753 Q 249 -753 267 -746 Q 286 -740 300 -729 Q 314 -718 322 -702 Q 330 -687 330 -669 "/>
    </symbol>
    <symbol overflow="visible" id="f1g106">
      <path d="M 132 -678 Q 163 -678 183 -657 Q 204 -637 204 -606 Q 204 -592 197 -579 Q 191 -566 180 -556 Q 170 -546 157 -540 Q 144 -534 130 -534 Q 102 -534 81 -558 Q 60 -583 60 -616 Q 60 -643 82 -660 Q 105 -678 132 -678 M 199 42 Q 199 67 185 91 Q 172 116 151 135 Q 130 155 104 167 Q 78 179 53 179 Q 27 179 3 171 Q -20 164 -39 150 Q -58 136 -69 117 Q -80 98 -80 75 Q -80 43 -65 19 Q -50 -4 -24 -4 Q -11 -4 1 0 Q 14 4 24 11 Q 34 18 40 27 Q 46 36 46 46 Q 46 64 43 75 Q 41 86 33 93 Q 25 100 9 103 Q -6 107 -32 110 Q -28 113 -21 117 Q -14 122 -6 126 Q 1 130 8 133 Q 15 136 19 136 Q 33 136 45 127 Q 58 118 68 103 Q 78 89 83 71 Q 89 53 89 36 L 89 -396 Q 89 -412 71 -423 Q 54 -434 37 -434 L 32 -434 L 32 -439 L 32 -445 Q 32 -460 27 -470 Q 56 -478 98 -489 Q 141 -500 199 -514 L 199 42 "/>
    </symbol>
    <symbol overflow="visible" id="f1g98">
      <path d="M 393 -268 Q 393 7 239 7 Q 174 7 121 -46 Q 109 -27 100 -15 Q 91 -4 82 2 Q 74 8 64 10 Q 54 12 41 12 Q 25 12 16 9 Q 8 6 4 0 Q 0 -6 -1 -16 Q -2 -26 -2 -41 Q 73 -51 73 -158 Q 73 -167 72 -187 Q 71 -207 70 -229 Q 69 -252 68 -273 Q 67 -294 67 -304 L 70 -643 Q 70 -665 55 -678 Q 40 -692 19 -692 L 13 -692 L 13 -698 L 13 -704 Q 13 -717 8 -729 Q 37 -737 79 -748 Q 122 -759 180 -773 Q 177 -711 177 -685 Q 177 -604 177 -544 Q 178 -484 179 -446 Q 192 -462 200 -470 Q 208 -479 214 -483 Q 221 -488 228 -489 Q 235 -490 246 -490 Q 276 -490 302 -470 Q 329 -451 349 -419 Q 370 -388 381 -348 Q 393 -308 393 -268 M 292 -232 Q 292 -263 285 -294 Q 278 -326 266 -351 Q 255 -376 239 -392 Q 223 -408 205 -408 Q 188 -408 167 -387 L 167 -107 Q 167 -97 169 -85 Q 171 -74 175 -64 Q 179 -55 184 -48 Q 189 -42 195 -42 Q 292 -42 292 -232 "/>
    </symbol>
    <symbol overflow="visible" id="f29g117">
      <path d="M 653 0 L 471 0 L 471 -84 Q 407 -32 360 -11 Q 313 9 259 9 Q 195 9 152 -25 Q 110 -59 110 -141 L 110 -350 Q 110 -395 96 -412 Q 82 -430 44 -433 L 20 -435 L 20 -465 Q 110 -471 171 -485 L 205 -485 L 205 -149 Q 205 -92 227 -65 Q 249 -39 296 -39 Q 371 -39 471 -127 L 471 -350 Q 471 -395 457 -412 Q 443 -430 405 -433 L 381 -435 L 381 -465 Q 477 -472 532 -485 L 566 -485 L 566 -115 Q 566 -74 580 -55 Q 595 -36 628 -32 L 653 -30 L 653 0 "/>
    </symbol>
    <symbol overflow="visible" id="f1g65">
      <path d="M 574 -17 Q 574 -9 573 -2 Q 573 4 572 11 L 299 11 Q 300 -2 300 -26 Q 300 -50 300 -87 L 308 -87 Q 343 -87 343 -132 L 337 -192 Q 314 -190 288 -189 Q 262 -188 232 -187 Q 217 -155 217 -124 Q 217 -120 223 -114 Q 229 -109 237 -103 Q 245 -97 253 -92 Q 261 -88 265 -87 L 265 13 L 9 13 L 9 -71 Q 67 -73 92 -92 Q 117 -112 122 -157 Q 140 -355 195 -569 Q 206 -615 206 -617 Q 206 -632 192 -634 Q 178 -637 157 -643 Q 159 -660 165 -683 Q 171 -707 180 -739 Q 188 -739 198 -734 Q 208 -729 215 -729 L 376 -729 Q 381 -729 381 -730 Q 381 -731 380 -731 Q 379 -732 379 -734 Q 379 -736 386 -737 Q 393 -739 419 -739 L 419 -659 Q 411 -655 401 -650 Q 392 -645 381 -638 L 381 -631 Q 381 -614 385 -580 Q 390 -546 397 -502 Q 405 -459 415 -409 Q 426 -360 438 -311 Q 450 -262 463 -217 Q 477 -172 491 -137 Q 505 -102 518 -81 Q 532 -61 545 -61 L 572 -65 Q 572 -57 573 -41 Q 574 -25 574 -17 M 337 -298 Q 320 -350 304 -401 Q 288 -452 277 -506 Q 265 -430 229 -271 Q 271 -274 337 -298 "/>
    </symbol>
    <symbol overflow="visible" id="f1g82">
      <path d="M 561 -57 Q 561 -44 550 -31 Q 540 -18 524 -7 Q 509 3 491 9 Q 474 16 460 16 Q 372 16 357 -71 Q 355 -112 355 -155 Q 355 -198 346 -233 Q 337 -269 314 -291 Q 291 -314 243 -314 L 232 -313 Q 229 -281 226 -248 Q 223 -215 221 -188 Q 219 -162 217 -144 Q 216 -126 216 -124 Q 216 -81 285 -81 Q 298 -81 303 -82 L 303 10 L 8 10 Q 9 1 9 -19 Q 9 -39 9 -71 Q 106 -71 106 -179 Q 106 -187 104 -203 Q 103 -220 101 -239 Q 100 -258 99 -275 Q 98 -292 98 -300 Q 98 -305 98 -310 Q 98 -316 99 -321 Q 109 -391 113 -456 Q 118 -521 118 -581 Q 118 -607 100 -622 Q 82 -637 56 -637 L 47 -637 Q 53 -683 53 -722 Q 89 -734 112 -734 L 174 -734 Q 270 -734 335 -724 Q 400 -715 439 -693 Q 479 -672 495 -637 Q 512 -603 512 -554 Q 512 -525 499 -494 Q 487 -464 466 -438 Q 446 -412 419 -392 Q 392 -373 364 -365 Q 423 -344 447 -309 Q 471 -275 471 -215 Q 471 -206 470 -188 Q 470 -170 469 -150 Q 469 -131 468 -113 Q 468 -96 468 -87 Q 486 -82 486 -82 L 485 -82 Q 513 -82 513 -186 L 561 -186 L 561 -57 M 364 -534 Q 364 -663 262 -663 L 234 -663 L 234 -401 L 273 -401 Q 316 -401 340 -438 Q 364 -476 364 -534 "/>
    </symbol>
    <symbol overflow="visible" id="f29g109">
      <path d="M 928 0 L 666 0 L 666 -30 L 684 -32 Q 716 -37 731 -53 Q 746 -70 746 -115 L 746 -333 Q 746 -442 667 -442 Q 603 -442 520 -373 L 520 -115 Q 520 -74 534 -55 Q 548 -37 582 -32 L 603 -30 L 603 0 L 342 0 L 342 -30 L 363 -32 Q 397 -37 411 -55 Q 425 -74 425 -115 L 425 -336 Q 425 -391 405 -416 Q 386 -442 343 -442 Q 279 -442 199 -373 L 199 -115 Q 199 -89 204 -72 Q 209 -55 220 -47 Q 232 -39 239 -36 Q 247 -34 261 -32 L 279 -30 L 279 0 L 17 0 L 17 -30 L 42 -32 Q 75 -36 89 -55 Q 104 -74 104 -115 L 104 -350 Q 104 -395 90 -412 Q 77 -429 38 -433 L 17 -435 L 17 -465 Q 94 -472 165 -485 L 199 -485 L 199 -418 Q 247 -460 287 -477 Q 328 -494 381 -494 Q 435 -494 466 -475 Q 498 -456 518 -411 Q 572 -457 615 -475 Q 658 -494 708 -494 Q 770 -494 805 -458 Q 841 -423 841 -360 L 841 -115 Q 841 -74 855 -55 Q 870 -36 903 -32 L 928 -30 L 928 0 "/>
    </symbol>
    <symbol overflow="visible" id="f29g98">
      <path d="M 582 -248 Q 582 -135 514 -63 Q 447 9 340 9 Q 292 9 253 -6 Q 214 -21 165 -58 L 141 0 L 85 0 L 85 -538 Q 85 -605 73 -625 Q 61 -646 20 -650 L -2 -652 L -2 -683 Q 77 -692 140 -717 L 180 -717 L 180 -422 Q 222 -461 262 -477 Q 302 -494 354 -494 Q 454 -494 518 -424 Q 582 -355 582 -248 M 480 -245 Q 480 -338 439 -392 Q 398 -446 328 -446 Q 285 -446 251 -428 Q 218 -411 180 -368 L 180 -95 Q 238 -39 317 -39 Q 391 -39 435 -95 Q 480 -151 480 -245 "/>
    </symbol>
    <symbol overflow="visible" id="f29g43">
      <path d="M 560 -211 L 339 -211 L 339 10 L 261 10 L 261 -211 L 40 -211 L 40 -289 L 261 -289 L 261 -510 L 339 -510 L 339 -289 L 560 -289 L 560 -211 "/>
    </symbol>
    <symbol overflow="visible" id="f1g51">
      <path d="M 465 -731 L 262 -415 Q 302 -402 335 -379 Q 369 -357 393 -327 Q 417 -298 430 -263 Q 443 -228 443 -189 Q 443 -137 426 -95 Q 409 -54 378 -25 Q 347 3 302 18 Q 257 33 202 33 Q 166 33 134 25 Q 103 17 80 2 Q 58 -12 45 -32 Q 32 -53 32 -77 Q 32 -92 38 -106 Q 44 -121 54 -133 Q 64 -145 77 -152 Q 91 -159 106 -159 Q 133 -159 151 -137 Q 169 -115 169 -88 Q 169 -53 114 -35 Q 120 -11 186 -11 Q 269 -11 301 -46 Q 334 -82 334 -165 Q 334 -215 324 -249 Q 315 -283 291 -304 Q 267 -325 225 -334 Q 184 -344 120 -347 L 306 -643 Q 301 -647 290 -647 Q 176 -647 129 -628 Q 126 -627 114 -617 Q 103 -607 90 -595 Q 78 -584 68 -574 Q 58 -565 57 -565 Q 50 -565 36 -568 Q 22 -571 16 -571 Q 26 -597 39 -637 Q 53 -677 72 -731 L 465 -731 "/>
    </symbol>
    <symbol overflow="visible" id="f1g68">
      <path d="M 494 -387 Q 494 -294 472 -218 Q 450 -142 408 -89 Q 367 -36 306 -7 Q 246 22 168 22 Q 161 22 145 21 Q 130 21 113 20 Q 96 20 80 19 Q 65 19 57 19 Q 40 19 26 19 Q 12 20 2 21 Q 4 3 5 -20 Q 7 -43 7 -71 Q 104 -71 104 -179 Q 104 -187 102 -203 Q 101 -220 99 -239 Q 98 -258 97 -275 Q 96 -292 96 -300 Q 96 -305 96 -310 Q 96 -316 97 -321 Q 107 -391 111 -456 Q 116 -521 116 -581 Q 116 -607 98 -622 Q 80 -637 54 -637 L 45 -637 Q 51 -683 51 -722 Q 121 -741 168 -741 L 178 -741 Q 182 -740 187 -740 Q 283 -736 343 -720 Q 403 -704 436 -665 Q 470 -626 482 -559 Q 494 -492 494 -387 M 382 -409 Q 382 -458 374 -499 Q 366 -541 351 -571 Q 336 -601 314 -618 Q 293 -635 266 -635 L 225 -635 L 225 -121 L 249 -121 Q 279 -121 303 -145 Q 328 -170 345 -210 Q 363 -251 372 -303 Q 382 -355 382 -409 "/>
    </symbol>
    <symbol overflow="visible" id="f1g120">
      <path d="M 421 -491 L 421 -438 Q 401 -433 390 -430 Q 380 -428 373 -425 Q 367 -422 362 -416 Q 358 -411 351 -400 Q 337 -380 316 -348 Q 295 -317 266 -272 Q 278 -254 291 -224 Q 305 -194 322 -164 Q 340 -135 362 -112 Q 385 -89 416 -85 L 421 -20 Q 403 -8 343 -8 L 227 -8 L 227 -102 L 230 -102 Q 248 -102 248 -116 Q 248 -120 243 -133 Q 239 -147 233 -162 Q 227 -177 221 -190 Q 215 -203 212 -208 Q 210 -206 204 -196 Q 199 -187 193 -174 Q 187 -161 182 -147 Q 177 -133 177 -123 Q 177 -95 202 -95 L 202 -8 Q 160 -10 131 -11 Q 102 -13 82 -13 Q 62 -13 45 -11 Q 28 -10 12 -8 Q 12 -19 12 -34 Q 12 -49 13 -69 Q 49 -69 87 -110 Q 125 -151 183 -239 Q 166 -276 153 -307 Q 140 -339 125 -361 Q 111 -384 92 -397 Q 74 -410 46 -411 Q 34 -411 33 -410 L 33 -487 L 226 -487 L 226 -427 Q 207 -421 206 -396 Q 210 -382 218 -360 Q 227 -338 241 -309 Q 245 -313 253 -323 Q 262 -333 269 -345 Q 277 -357 283 -370 Q 289 -383 289 -394 Q 289 -416 256 -427 L 256 -491 L 421 -491 "/>
    </symbol>
    <symbol overflow="visible" id="f29g72">
      <path d="M 769 0 L 489 0 L 489 -31 L 514 -34 Q 553 -39 566 -61 Q 579 -83 579 -144 L 579 -345 L 221 -345 L 221 -144 Q 221 -83 234 -61 Q 247 -39 286 -34 L 311 -31 L 311 0 L 31 0 L 31 -31 L 56 -34 Q 95 -39 108 -61 Q 121 -83 121 -144 L 121 -537 Q 121 -598 108 -620 Q 95 -642 56 -647 L 31 -650 L 31 -681 L 311 -681 L 311 -650 L 286 -647 Q 247 -642 234 -620 Q 221 -598 221 -537 L 221 -388 L 579 -388 L 579 -537 Q 579 -598 566 -620 Q 553 -642 514 -647 L 489 -650 L 489 -681 L 769 -681 L 769 -650 L 744 -647 Q 705 -642 692 -620 Q 679 -598 679 -537 L 679 -144 Q 679 -83 692 -61 Q 705 -39 744 -34 L 769 -31 L 769 0 "/>
    </symbol>
    <symbol overflow="visible" id="f29g71">
      <path d="M 778 -293 L 760 -290 Q 734 -285 722 -278 Q 710 -271 702 -248 Q 695 -225 695 -180 L 695 0 L 648 0 L 616 -69 Q 510 13 389 13 Q 241 13 142 -89 Q 44 -191 44 -343 Q 44 -449 94 -531 Q 144 -613 219 -653 Q 295 -694 379 -694 Q 486 -694 574 -633 L 594 -681 L 625 -681 L 686 -469 L 648 -458 Q 586 -545 543 -582 Q 466 -646 385 -646 Q 285 -646 223 -561 Q 162 -476 162 -336 Q 162 -201 228 -118 Q 295 -35 403 -35 Q 432 -35 463 -42 Q 494 -50 527 -67 Q 561 -85 582 -119 Q 603 -154 603 -200 Q 603 -246 581 -266 Q 560 -287 505 -294 L 505 -324 L 778 -324 L 778 -293 "/>
    </symbol>
    <symbol overflow="visible" id="f29g82">
      <path d="M 757 0 L 590 0 L 365 -321 L 221 -321 L 221 -144 Q 221 -83 234 -60 Q 248 -38 286 -34 L 322 -31 L 322 0 L 31 0 L 31 -31 L 56 -34 Q 95 -39 108 -61 Q 121 -83 121 -144 L 121 -537 Q 121 -598 108 -620 Q 95 -642 56 -647 L 31 -650 L 31 -681 L 438 -681 Q 546 -681 607 -635 Q 669 -589 669 -509 Q 669 -485 662 -462 Q 656 -440 639 -411 Q 622 -383 582 -361 Q 542 -339 484 -331 L 650 -96 Q 673 -66 696 -52 Q 720 -38 757 -31 L 757 0 M 561 -505 Q 561 -640 369 -640 Q 280 -640 250 -625 Q 221 -611 221 -581 L 221 -364 L 389 -364 Q 433 -364 465 -374 Q 498 -385 516 -400 Q 534 -415 544 -435 Q 555 -456 558 -472 Q 561 -488 561 -505 "/>
    </symbol>
    <symbol overflow="visible" id="f1g88">
      <path d="M 543 -664 Q 508 -651 421 -537 Q 337 -424 337 -387 Q 338 -385 341 -371 Q 345 -358 354 -333 Q 444 -85 503 -82 Q 511 -87 532 -87 Q 528 -78 528 -58 Q 528 -47 529 -31 Q 530 -16 532 4 Q 447 21 440 21 L 276 21 Q 278 17 278 9 Q 278 1 277 -14 Q 277 -30 277 -47 Q 277 -65 276 -80 Q 276 -95 276 -103 Q 308 -108 308 -129 Q 308 -136 302 -155 Q 297 -174 289 -195 Q 282 -217 274 -237 Q 266 -257 262 -266 Q 257 -259 248 -239 Q 240 -220 231 -198 Q 223 -177 216 -158 Q 210 -140 210 -135 Q 210 -129 242 -97 L 242 18 Q 176 16 139 15 Q 102 14 92 14 Q 64 14 39 15 Q 14 16 -9 18 Q -9 3 -9 -19 Q -9 -42 -8 -71 Q -5 -70 2 -70 Q 43 -70 79 -100 Q 89 -108 109 -138 Q 130 -168 162 -222 Q 225 -328 225 -348 Q 225 -366 207 -420 Q 172 -524 126 -580 Q 80 -637 35 -637 L 30 -637 Q 30 -639 30 -647 Q 31 -656 31 -666 Q 31 -677 31 -687 Q 32 -697 32 -702 Q 32 -713 29 -724 L 286 -724 L 286 -654 Q 259 -628 259 -608 Q 259 -595 263 -574 Q 267 -554 273 -532 Q 279 -511 286 -491 Q 294 -471 300 -459 Q 306 -469 317 -494 Q 329 -520 340 -547 Q 352 -574 360 -595 Q 369 -617 369 -619 Q 369 -645 325 -653 L 325 -731 L 543 -731 L 543 -664 "/>
    </symbol>
    <symbol overflow="visible" id="f1g117">
      <path d="M 416 6 Q 405 12 398 12 Q 373 12 350 -5 Q 327 -22 318 -46 Q 267 7 200 7 Q 173 7 148 -2 Q 123 -11 103 -27 Q 84 -43 72 -66 Q 61 -89 61 -117 L 61 -333 Q 61 -360 43 -377 Q 25 -394 -1 -394 Q 0 -401 1 -411 Q 2 -422 3 -436 L 151 -480 Q 148 -291 148 -206 Q 148 -156 152 -124 Q 157 -92 165 -74 Q 174 -56 186 -49 Q 199 -42 215 -42 Q 276 -42 276 -162 L 276 -302 Q 276 -357 260 -380 Q 245 -404 216 -404 L 216 -441 Q 250 -451 289 -462 Q 328 -473 373 -485 Q 374 -428 374 -383 Q 374 -338 374 -303 Q 374 -255 373 -226 Q 373 -198 372 -180 Q 372 -163 371 -152 Q 371 -141 371 -128 Q 371 -64 421 -41 L 416 6 "/>
    </symbol>
    <symbol overflow="visible" id="f1g103">
      <path d="M 380 -566 Q 380 -544 369 -538 Q 359 -532 344 -527 Q 329 -523 312 -513 Q 296 -503 284 -473 Q 296 -465 306 -450 Q 317 -436 324 -417 Q 332 -398 336 -377 Q 341 -356 341 -336 Q 341 -301 329 -271 Q 318 -242 291 -215 Q 264 -188 220 -162 Q 176 -136 112 -109 Q 103 -101 103 -91 Q 103 -69 133 -69 Q 130 -69 140 -74 Q 150 -80 167 -88 Q 184 -96 205 -105 Q 226 -114 246 -122 Q 266 -130 281 -135 Q 296 -141 301 -141 Q 312 -141 321 -132 Q 330 -124 336 -109 Q 342 -94 345 -74 Q 349 -55 349 -33 Q 349 1 325 39 Q 302 78 266 111 Q 231 144 190 165 Q 150 187 116 187 Q 17 187 17 78 Q 17 58 20 42 Q 23 26 31 11 Q 40 -4 55 -20 Q 70 -36 93 -56 Q 73 -65 62 -70 Q 51 -75 46 -80 Q 41 -85 40 -90 Q 40 -96 40 -107 Q 40 -120 45 -129 Q 51 -138 60 -144 Q 69 -150 79 -154 Q 90 -158 101 -163 Q 25 -226 25 -300 Q 25 -408 66 -453 Q 107 -498 196 -498 Q 229 -498 253 -488 Q 254 -508 262 -529 Q 271 -550 283 -567 Q 296 -584 312 -595 Q 328 -606 346 -606 Q 380 -606 380 -566 M 236 -345 Q 236 -469 180 -469 Q 165 -469 155 -463 Q 145 -457 139 -437 Q 133 -418 130 -380 Q 128 -342 128 -278 Q 128 -184 161 -184 Q 181 -184 195 -192 Q 209 -200 218 -219 Q 227 -238 231 -269 Q 236 -300 236 -345 M 260 -13 Q 260 -34 251 -54 Q 242 -74 228 -74 Q 207 -74 187 -60 Q 168 -46 152 -24 Q 137 -3 128 24 Q 119 51 119 76 Q 119 143 158 143 Q 178 143 196 129 Q 215 115 229 92 Q 243 70 251 42 Q 260 14 260 -13 "/>
    </symbol>
  </defs>
  <a xlink:href="evontech.com" target="_blank">
    <t:tag>XMPP</t:tag>
    <g transform="matrix(0.0457026,0,0,0.0457026,9.46248,63.5873)" fill="#2D6191">
      <rect x="-148.16" y="-820.16" width="3164.32" height="936.32"/>
      <use xlink:href="#f29g88" x="0" y="0"/>
      <use xlink:href="#f29g77" x="720" y="0"/>
      <use xlink:href="#f29g80" x="1640" y="0"/>
      <use xlink:href="#f29g80" x="2260" y="0"/>
    </g>
  </a>
  <a xlink:href="http://evontech.com/video-streaming.html" target="_blank">
    <t:tag>Flash Media Server</t:tag>
    <g transform="matrix(0.0169315,0,0,0.0169315,22,28.7308)" fill="#2D6191">
      <rect x="-142.56" y="-942.56" width="7018.12" height="1149.12"/>
      <use xlink:href="#f1g70" x="0" y="0"/>
      <use xlink:href="#f1g108" x="448" y="0"/>
      <use xlink:href="#f1g97" x="689" y="0"/>
      <use xlink:href="#f1g115" x="1054" y="0"/>
      <use xlink:href="#f1g104" x="1385" y="0"/>
      <use xlink:href="#f1g32" x="1857" y="0"/>
      <use xlink:href="#f1g77" x="2102" y="0"/>
      <use xlink:href="#f1g101" x="2850" y="0"/>
      <use xlink:href="#f1g100" x="3197" y="0"/>
      <use xlink:href="#f1g105" x="3593" y="0"/>
      <use xlink:href="#f1g97" x="3849" y="0"/>
      <use xlink:href="#f1g32" x="4214" y="0"/>
      <use xlink:href="#f1g83" x="4459" y="0"/>
      <use xlink:href="#f1g101" x="4914" y="0"/>
      <use xlink:href="#f1g114" x="5271" y="0"/>
      <use xlink:href="#f1g118" x="5616" y="0"/>
      <use xlink:href="#f1g101" x="6014" y="0"/>
      <use xlink:href="#f1g114" x="6371" y="0"/>
    </g>
  </a>
  <a xlink:href="http://evontech.com/smartfox-flash-net-silverlight-game-development.html" target="_blank">
    <t:tag>Unity 3D</t:tag>
    <g transform="matrix(0.0212912,0,0,0.0212912,33,79.2692)" fill="#49afcd">
      <rect x="-158.4" y="-862.4" width="4684.8" height="1276.8"/>
      <use xlink:href="#f29g85" x="0" y="0"/>
      <use xlink:href="#f29g110" x="780" y="0"/>
      <use xlink:href="#f29g105" x="1440" y="0"/>
      <use xlink:href="#f29g116" x="1740" y="0"/>
      <use xlink:href="#f29g121" x="2120" y="0"/>
      <use xlink:href="#f29g32" x="2660" y="0"/>
      <use xlink:href="#f29g51" x="2980" y="0"/>
      <use xlink:href="#f29g68" x="3600" y="0"/>
    </g>
  </a>
  <a xlink:href="http://evontech.com/video-streaming.html" target="_blank">
    <t:tag>Mencoder</t:tag>
    <g transform="matrix(0.0104167,0,0,0.0104167,52.6667,14.6667)" fill="#49afcd" t:f="1">
      <rect x="-126.72" y="-862.72" width="5021.44" height="1021.44"/>
      <use xlink:href="#f29g77" x="0" y="0"/>
      <use xlink:href="#f29g101" x="920" y="0"/>
      <use xlink:href="#f29g110" x="1440" y="0"/>
      <use xlink:href="#f29g99" x="2100" y="0"/>
      <use xlink:href="#f29g111" x="2620" y="0"/>
      <use xlink:href="#f29g100" x="3180" y="0"/>
      <use xlink:href="#f29g101" x="3800" y="0"/>
      <use xlink:href="#f29g114" x="4320" y="0"/>
    </g>
  </a>
  <a xlink:href="http://evontech.com/video-streaming.html" target="_blank">
    <t:tag>FFMPEG</t:tag>
    <g transform="matrix(0.0136292,0,0,0.0136292,74,95.7975)" fill="#2D6191" t:f="1">
      <rect x="-137.28" y="-905.28" width="3429.56" height="1106.56"/>
      <use xlink:href="#f1g70" x="0" y="0"/>
      <use xlink:href="#f1g70" x="448" y="0"/>
      <use xlink:href="#f1g77" x="896" y="0"/>
      <use xlink:href="#f1g80" x="1644" y="0"/>
      <use xlink:href="#f1g69" x="2135" y="0"/>
      <use xlink:href="#f1g71" x="2611" y="0"/>
    </g>
  </a>
  <a xlink:href="http://evontech.com/video-streaming.html" target="_blank">
    <t:tag>Wowza</t:tag>
    <g transform="matrix(0.00906433,0,0,0.00906433,43.2901,87.0456)" fill="#49afcd">
      <rect x="-153.44" y="-825.44" width="3662.88" height="978.88"/>
      <use xlink:href="#f29g87" x="0" y="0"/>
      <use xlink:href="#f29g111" x="960" y="0"/>
      <use xlink:href="#f29g119" x="1520" y="0"/>
      <use xlink:href="#f29g122" x="2300" y="0"/>
      <use xlink:href="#f29g97" x="2780" y="0"/>
    </g>
  </a>
  <a xlink:href="http://evontech.com/wcf-development.html" target="_blank">
    <t:tag>WCF</t:tag>
    <g transform="matrix(0.0108173,0,0,0.0108173,98.2055,59.3077)" fill="#2D6191" t:f="1">
      <rect x="-169.28" y="-905.28" width="1964.56" height="1106.56"/>
      <use xlink:href="#f1g87" x="0" y="0"/>
      <use xlink:href="#f1g67" x="775" y="0"/>
      <use xlink:href="#f1g70" x="1205" y="0"/>
    </g>
  </a>
  <a xlink:href="http://evontech.com/wpf-development.html" target="_blank">
    <t:tag>WPF</t:tag>
    <g transform="matrix(0.0109589,0,0,0.0109589,125.351,59.1822)" fill="#2D6191">
      <rect x="-164" y="-868" width="2089" height="1064"/>
      <use xlink:href="#f1g87" x="0" y="0"/>
      <use xlink:href="#f1g80" x="834" y="0"/>
      <use xlink:href="#f1g70" x="1340" y="0"/>
    </g>
  </a>
  <a xlink:href="http://evontech.com/silverlight-developers-.html" target="_blank">
    <t:tag>SilverLight</t:tag>
    <g transform="matrix(0.00475647,0,0,0.00475647,106,17.1772)" fill="#49afcd">
      <rect x="-161.205" y="-897.205" width="5578.41" height="1299.41"/>
      <use xlink:href="#f29g83" x="0" y="0"/>
      <use xlink:href="#f29g105" x="660" y="0"/>
      <use xlink:href="#f29g108" x="960" y="0"/>
      <use xlink:href="#f29g118" x="1260" y="0"/>
      <use xlink:href="#f29g101" x="1780" y="0"/>
      <use xlink:href="#f29g114" x="2300" y="0"/>
      <use xlink:href="#f29g76" x="2740" y="0"/>
      <use xlink:href="#f29g105" x="3340" y="0"/>
      <use xlink:href="#f29g103" x="3640" y="0"/>
      <use xlink:href="#f29g104" x="4180" y="0"/>
      <use xlink:href="#f29g116" x="4840" y="0"/>
    </g>
  </a>
  <a xlink:href="evontech.com" target="_blank">
    <t:tag>OWASP Top 10</t:tag>
    <g transform="matrix(0.00536481,0,0,0.00536481,85.5966,83.7768)" fill="#2D6191">
      <rect x="-121.78" y="-857.78" width="7663.56" height="1239.56"/>
      <use xlink:href="#f29g79" x="0" y="0"/>
      <use xlink:href="#f29g87" x="800" y="0"/>
      <use xlink:href="#f29g65" x="1760" y="0"/>
      <use xlink:href="#f29g83" x="2440" y="0"/>
      <use xlink:href="#f29g80" x="3100" y="0"/>
      <use xlink:href="#f29g32" x="3720" y="0"/>
      <use xlink:href="#f29g84" x="4040" y="0"/>
      <use xlink:href="#f29g111" x="4660" y="0"/>
      <use xlink:href="#f29g112" x="5220" y="0"/>
      <use xlink:href="#f29g32" x="5840" y="0"/>
      <use xlink:href="#f29g49" x="6160" y="0"/>
      <use xlink:href="#f29g48" x="6780" y="0"/>
    </g>
  </a>
  <a xlink:href="iphone.evontech.com" target="_blank">
    <t:tag>Cocos2D</t:tag>
    <g transform="matrix(0.00540414,0,0,0.00540414,9.82707,68.3158)" fill="#49afcd">
      <rect x="-89.44" y="-825.44" width="4498.88" height="978.88"/>
      <use xlink:href="#f29g67" x="0" y="0"/>
      <use xlink:href="#f29g111" x="740" y="0"/>
      <use xlink:href="#f29g99" x="1300" y="0"/>
      <use xlink:href="#f29g111" x="1820" y="0"/>
      <use xlink:href="#f29g115" x="2380" y="0"/>
      <use xlink:href="#f29g50" x="2900" y="0"/>
      <use xlink:href="#f29g68" x="3520" y="0"/>
    </g>
  </a>
  <a xlink:href="evontech.com" target="_blank">
    <t:tag>Hadoop</t:tag>
    <g transform="matrix(0.00705645,0,0,0.00705645,16.9264,74.6452)" fill="#2D6191">
      <rect x="-163.68" y="-963.68" width="2757.36" height="1319.36"/>
      <use xlink:href="#f1g72" x="0" y="0"/>
      <use xlink:href="#f1g97" x="574" y="0"/>
      <use xlink:href="#f1g100" x="918" y="0"/>
      <use xlink:href="#f1g111" x="1314" y="0"/>
      <use xlink:href="#f1g111" x="1675" y="0"/>
      <use xlink:href="#f1g112" x="2036" y="0"/>
    </g>
  </a>
  <a xlink:href="evontech.com" target="_blank">
    <t:tag>Openfire</t:tag>
    <g transform="matrix(0.00611621,0,0,0.00611621,0,51.7615)" fill="#2D6191">
      <rect x="-158.4" y="-926.4" width="3259.8" height="1276.8"/>
      <use xlink:href="#f1g79" x="0" y="0"/>
      <use xlink:href="#f1g112" x="483" y="0"/>
      <use xlink:href="#f1g101" x="882" y="0"/>
      <use xlink:href="#f1g110" x="1239" y="0"/>
      <use xlink:href="#f1g102" x="1715" y="0"/>
      <use xlink:href="#f1g105" x="1990" y="0"/>
      <use xlink:href="#f1g114" x="2246" y="0"/>
      <use xlink:href="#f1g101" x="2591" y="0"/>
    </g>
  </a>
  <a xlink:href="evontech.com" target="_blank">
    <t:tag>Ejabberd</t:tag>
    <g transform="matrix(0.00467134,0,0,0.00467134,2,44.9201)" fill="#2D6191">
      <rect x="-163.68" y="-963.68" width="3324.36" height="1319.36"/>
      <use xlink:href="#f1g69" x="0" y="0"/>
      <use xlink:href="#f1g106" x="476" y="0"/>
      <use xlink:href="#f1g97" x="700" y="0"/>
      <use xlink:href="#f1g98" x="1065" y="0"/>
      <use xlink:href="#f1g98" x="1472" y="0"/>
      <use xlink:href="#f1g101" x="1879" y="0"/>
      <use xlink:href="#f1g114" x="2236" y="0"/>
      <use xlink:href="#f1g100" x="2581" y="0"/>
    </g>
  </a>
  <a xlink:href="evontech.com" target="_blank">
    <t:tag>Sussy</t:tag>
    <g transform="matrix(0.00546262,0,0,0.00546262,62,7.22363)" fill="#49afcd">
      <rect x="-158.4" y="-862.4" width="3245.8" height="1276.8"/>
      <use xlink:href="#f29g83" x="0" y="0"/>
      <use xlink:href="#f29g117" x="660" y="0"/>
      <use xlink:href="#f29g115" x="1340" y="0"/>
      <use xlink:href="#f29g115" x="1860" y="0"/>
      <use xlink:href="#f29g121" x="2380" y="0"/>
    </g>
  </a>
  <a xlink:href="evontech.com" target="_blank">
    <t:tag>CASS</t:tag>
    <g transform="matrix(0.00683851,0,0,0.00683851,33,15.4072)" fill="#2D6191" t:f="1">
      <rect x="-137.28" y="-905.28" width="2175.56" height="1106.56"/>
      <use xlink:href="#f1g67" x="0" y="0"/>
      <use xlink:href="#f1g65" x="419" y="0"/>
      <use xlink:href="#f1g83" x="998" y="0"/>
      <use xlink:href="#f1g83" x="1453" y="0"/>
    </g>
  </a>
  <a xlink:href="http://evontech.com/open-source-erp-crm-openbravo-opentaps.html" target="_blank">
    <t:tag>OpenERP</t:tag>
    <g transform="matrix(0.00416667,0,0,0.00416667,50.6958,67.2)" fill="#2D6191" t:f="1">
      <rect x="-158.4" y="-926.4" width="3582.8" height="1276.8"/>
      <use xlink:href="#f1g79" x="0" y="0"/>
      <use xlink:href="#f1g112" x="483" y="0"/>
      <use xlink:href="#f1g101" x="882" y="0"/>
      <use xlink:href="#f1g110" x="1239" y="0"/>
      <use xlink:href="#f1g69" x="1715" y="0"/>
      <use xlink:href="#f1g82" x="2191" y="0"/>
      <use xlink:href="#f1g80" x="2754" y="0"/>
    </g>
  </a>
  <a xlink:href="http://evontech.com/symbian.html" target="_blank">
    <t:tag>Symbian C++</t:tag>
    <g transform="matrix(0.00336597,0,0,0.00336597,75,66.8078)" fill="#2D6191">
      <rect x="-163.68" y="-899.68" width="6863.36" height="1319.36"/>
      <use xlink:href="#f29g83" x="0" y="0"/>
      <use xlink:href="#f29g121" x="660" y="0"/>
      <use xlink:href="#f29g109" x="1200" y="0"/>
      <use xlink:href="#f29g98" x="2140" y="0"/>
      <use xlink:href="#f29g105" x="2760" y="0"/>
      <use xlink:href="#f29g97" x="3060" y="0"/>
      <use xlink:href="#f29g110" x="3640" y="0"/>
      <use xlink:href="#f29g32" x="4300" y="0"/>
      <use xlink:href="#f29g67" x="4620" y="0"/>
      <use xlink:href="#f29g43" x="5360" y="0"/>
      <use xlink:href="#f29g43" x="5960" y="0"/>
    </g>
  </a>
  <a xlink:href="http://evontech.com/3ds-max-designers.html" target="_blank">
    <t:tag>3DS Max</t:tag>
    <g transform="matrix(0.00464684,0,0,0.00464684,56,33.6357)" fill="#49afcd">
      <rect x="-137.28" y="-905.28" width="3502.56" height="1106.56"/>
      <use xlink:href="#f1g51" x="0" y="0"/>
      <use xlink:href="#f1g68" x="465" y="0"/>
      <use xlink:href="#f1g83" x="967" y="0"/>
      <use xlink:href="#f1g32" x="1422" y="0"/>
      <use xlink:href="#f1g77" x="1667" y="0"/>
      <use xlink:href="#f1g97" x="2415" y="0"/>
      <use xlink:href="#f1g120" x="2780" y="0"/>
    </g>
  </a>
  <a xlink:href="ror.evontech.com" target="_blank">
    <t:tag>HAML</t:tag>
    <g transform="matrix(0.00460526,0,0,0.00460526,32,47.6211)" fill="#49afcd" t:f="1">
      <rect x="-116.16" y="-820.16" width="3272.32" height="936.32"/>
      <use xlink:href="#f29g72" x="0" y="0"/>
      <use xlink:href="#f29g65" x="800" y="0"/>
      <use xlink:href="#f29g77" x="1480" y="0"/>
      <use xlink:href="#f29g76" x="2400" y="0"/>
    </g>
  </a>
  <a xlink:href="http://evontech.com/html-5-developers.html" target="_blank">
    <t:tag>WebGL</t:tag>
    <g transform="matrix(0.00390625,0,0,0.00390625,94.1484,99.875)" fill="#2D6191" t:f="1">
      <rect x="-158.72" y="-862.72" width="3825.44" height="1021.44"/>
      <use xlink:href="#f29g87" x="0" y="0"/>
      <use xlink:href="#f29g101" x="960" y="0"/>
      <use xlink:href="#f29g98" x="1480" y="0"/>
      <use xlink:href="#f29g71" x="2100" y="0"/>
      <use xlink:href="#f29g76" x="2900" y="0"/>
    </g>
  </a>
  <a xlink:href="http://evontech.com/html-5-developers.html" target="_blank">
    <t:tag>WebRTC</t:tag>
    <g transform="matrix(0.00390625,0,0,0.00390625,104.969,12.875)" fill="#49afcd">
      <rect x="-158.72" y="-862.72" width="4429.44" height="1021.44"/>
      <use xlink:href="#f29g87" x="0" y="0"/>
      <use xlink:href="#f29g101" x="960" y="0"/>
      <use xlink:href="#f29g98" x="1480" y="0"/>
      <use xlink:href="#f29g82" x="2100" y="0"/>
      <use xlink:href="#f29g84" x="2820" y="0"/>
      <use xlink:href="#f29g67" x="3440" y="0"/>
    </g>
  </a>
  <a xlink:href="http://evontech.com/video-streaming.html" target="_blank">
    <t:tag>Xuggler</t:tag>
    <g transform="matrix(0.00559493,0,0,0.00559493,135.179,30.7009)" fill="#49afcd">
      <rect x="-195.68" y="-963.68" width="3008.36" height="1319.36"/>
      <use xlink:href="#f1g88" x="0" y="0"/>
      <use xlink:href="#f1g117" x="552" y="0"/>
      <use xlink:href="#f1g103" x="971" y="0"/>
      <use xlink:href="#f1g103" x="1330" y="0"/>
      <use xlink:href="#f1g108" x="1689" y="0"/>
      <use xlink:href="#f1g101" x="1930" y="0"/>
      <use xlink:href="#f1g114" x="2287" y="0"/>
    </g>
  </a>
</svg>